<?xml version="1.0" encoding="UTF-8" standalone="no"?>
<!-- Created with Inkscape (http://www.inkscape.org/) -->

<svg
   width="194.23134mm"
   height="138.32912mm"
   viewBox="0 0 194.23134 138.32912"
   version="1.1"
   id="svg1"
   xml:space="preserve"
   xmlns="http://www.w3.org/2000/svg"
   xmlns:svg="http://www.w3.org/2000/svg"><defs
     id="defs1"><clipPath
       clipPathUnits="userSpaceOnUse"
       id="clipPath2"><path
         d="M 0,1080 H 1920 V 0 H 0 Z"
         transform="translate(-1059.1536,-692.58592)"
         id="path2" /></clipPath></defs><g
     id="layer-MC0"
     transform="matrix(0.26458333,0,0,0.26458334,-241.55106,-121.33549)"><path
       id="path1"
       d="m 0,0 h -8.487 c -0.922,0 -1.705,-0.348 -2.337,-1.041 -0.636,-0.692 -0.953,-1.502 -0.953,-2.422 v -114.136 c 0,-0.926 0.317,-1.73 0.953,-2.424 0.632,-0.693 1.415,-1.039 2.337,-1.039 H 0 c 0.923,0 1.674,0.346 2.251,1.039 0.577,0.694 0.865,1.498 0.865,2.424 V -3.463 c 0,0.92 -0.288,1.73 -0.865,2.422 C 1.674,-0.348 0.923,0 0,0 M 6.408,19.743 H -5.196 c -0.925,0.461 -1.791,1.472 -2.597,3.032 -0.81,1.56 -1.212,3.55 -1.212,5.976 0,5.196 3.057,7.793 9.178,7.793 0.577,0 1.558,-0.03 2.943,-0.086 1.387,-0.063 2.195,-0.089 2.426,-0.089 1.499,0 2.253,0.633 2.253,1.906 v 2.426 c 0,0.923 -0.637,1.616 -1.907,2.079 -1.152,0.229 -2.31,0.401 -3.462,0.518 -1.158,0.115 -2.195,0.173 -3.117,0.173 -5.197,0 -9.209,-1.126 -12.037,-3.377 -2.835,-2.249 -4.246,-5.801 -4.246,-10.652 0,-1.733 0.232,-3.493 0.694,-5.282 0.46,-1.791 1.212,-3.321 2.251,-4.589 h -2.945 c -2.078,0 -3.115,-0.579 -3.115,-1.731 v -2.945 c 0,-1.385 1.037,-2.078 3.115,-2.078 H 6.408 c 0.923,0 1.644,0.112 2.165,0.345 0.519,0.231 0.78,0.806 0.78,1.733 v 2.772 c 0,1.385 -0.983,2.076 -2.945,2.076 m -95.083,-102.53 c 0,5.656 -1.097,10.133 -3.29,13.424 -2.195,3.288 -6.409,4.934 -12.644,4.934 -6.233,0 -10.565,-1.646 -12.989,-4.934 -2.425,-3.291 -3.637,-7.768 -3.637,-13.424 v -5.89 c 0,-5.427 1.124,-9.872 3.375,-13.335 2.251,-3.464 6.439,-5.196 12.557,-5.196 6.236,0 10.566,1.702 12.992,5.112 2.424,3.4 3.636,7.879 3.636,13.419 z m 45.809,24.248 c 2.947,-6.004 4.418,-13.57 4.418,-22.69 v -8.658 c 0,-3.697 -0.116,-7.854 -0.347,-12.473 -0.234,-4.617 -0.811,-8.83 -1.731,-12.642 -0.233,-1.155 -0.81,-2.281 -1.731,-3.376 -0.929,-1.1 -2.37,-1.761 -4.334,-1.993 -1.616,-0.231 -3.923,-0.376 -6.927,-0.434 -3.003,-0.058 -6.177,-0.114 -9.524,-0.173 -3.351,-0.058 -6.697,-0.084 -10.046,-0.084 h -8.658 -67.198 -1.044 -7.097 c -3.697,0 -6.929,0.315 -9.699,0.951 -2.772,0.633 -5.138,1.789 -7.1,3.465 -1.966,1.673 -3.437,3.896 -4.418,6.668 -0.981,2.77 -1.472,6.348 -1.472,10.738 V 5.717 c 0,0.92 0.318,1.728 0.953,2.422 0.633,0.693 1.413,1.041 2.338,1.041 h 8.487 c 0.92,0 1.672,-0.348 2.251,-1.041 0.577,-0.694 0.864,-1.502 0.864,-2.422 V -95.949 c 0,-2.312 0.262,-4.132 0.78,-5.456 0.521,-1.331 1.271,-2.34 2.254,-3.031 0.978,-0.694 2.191,-1.156 3.636,-1.387 1.443,-0.232 3.085,-0.344 4.937,-0.344 h 3.286 1.044 19.568 c -2.029,2.079 -3.459,4.676 -4.293,7.793 -0.832,3.116 -1.249,6.638 -1.249,10.566 v 5.542 c 0,9.236 2.612,16.452 7.837,21.649 5.224,5.196 12.775,7.793 22.649,7.793 9.872,0 17.246,-2.511 22.122,-7.534 4.875,-5.023 7.316,-12.326 7.316,-21.908 v -5.542 c 0,-3.812 -0.497,-7.336 -1.491,-10.566 -0.996,-3.234 -2.543,-5.889 -4.647,-7.968 h 23.302 c 0.92,0 1.698,0.143 2.331,0.434 0.633,0.286 1.119,0.951 1.467,1.992 0.346,1.038 0.601,2.511 0.776,4.417 0.173,1.903 0.257,4.416 0.257,7.534 v 8.657 c 0,6.698 -0.951,12.268 -2.856,16.714 -1.906,4.445 -4.59,8.025 -8.053,10.739 -3.463,2.711 -7.594,4.647 -12.384,5.803 -4.793,1.151 -10.019,1.733 -15.673,1.733 h -6.843 c -2.83,0 -5.168,-0.063 -7.015,-0.175 -2.31,-0.234 -3.462,0.518 -3.462,2.253 v 7.273 c 0,1.845 1.096,3.001 3.291,3.463 2.77,0.46 5.455,0.72 8.053,0.78 2.597,0.056 4.53,0.084 5.801,0.084 7.043,0 13.797,-0.691 20.264,-2.076 6.464,-1.387 12.181,-3.872 17.146,-7.448 4.965,-3.58 8.921,-8.374 11.864,-14.374 M -212.334,9.005 h -8.486 c -0.927,0 -1.705,-0.319 -2.338,-0.953 -0.638,-0.635 -0.953,-1.415 -0.953,-2.335 V -99.934 c 0,-3.003 -0.434,-4.792 -1.299,-5.366 -0.866,-0.582 -2.975,-0.867 -6.321,-0.867 h -12.817 -1.039 -1.385 c -1.037,0 -2.252,0.056 -3.636,0.173 -1.388,0.112 -2.744,0.318 -4.071,0.605 -1.331,0.287 -2.541,0.694 -3.638,1.212 -1.098,0.521 -1.82,1.24 -2.165,2.165 v 47.628 c 0,0.925 -0.318,1.702 -0.951,2.338 -0.637,0.635 -1.417,0.955 -2.338,0.955 h -7.968 c -0.922,0 -1.705,-0.32 -2.338,-0.955 -0.635,-0.636 -0.953,-1.413 -0.953,-2.338 v -45.377 c 0,-1.499 -0.434,-2.683 -1.298,-3.55 -0.869,-0.866 -1.934,-1.501 -3.204,-1.905 -1.273,-0.406 -2.599,-0.666 -3.984,-0.778 -1.385,-0.117 -2.658,-0.173 -3.812,-0.173 h -6.754 -1.039 -1.387 c -1.037,0 -2.251,0.056 -3.636,0.173 -1.385,0.112 -2.742,0.318 -4.069,0.605 -1.328,0.287 -2.54,0.694 -3.638,1.212 -1.095,0.521 -1.819,1.24 -2.163,2.165 v 47.628 c 0,0.925 -0.319,1.702 -0.953,2.338 -0.637,0.635 -1.415,0.955 -2.337,0.955 h -7.971 c -0.922,0 -1.704,-0.32 -2.337,-0.955 -0.633,-0.636 -0.951,-1.413 -0.951,-2.338 v -45.377 c 0,-1.499 -0.434,-2.683 -1.299,-3.55 -0.866,-0.866 -1.935,-1.501 -3.204,-1.905 -1.272,-0.406 -2.597,-0.666 -3.982,-0.778 -1.385,-0.117 -2.659,-0.173 -3.811,-0.173 h -6.754 -1.041 -3.289 c -1.849,0 -3.493,0.112 -4.935,0.344 -1.445,0.231 -2.657,0.693 -3.638,1.387 -0.981,0.691 -1.731,1.7 -2.251,3.031 -0.521,1.324 -0.778,3.144 -0.778,5.456 V 5.717 c 0,0.92 -0.29,1.728 -0.866,2.422 -0.58,0.693 -1.331,1.041 -2.252,1.041 h -8.489 c -0.922,0 -1.705,-0.348 -2.338,-1.041 -0.633,-0.694 -0.952,-1.502 -0.952,-2.422 V -99.24 c 0,-4.39 0.49,-7.968 1.471,-10.738 0.981,-2.772 2.452,-4.995 4.418,-6.668 1.962,-1.676 4.33,-2.832 7.102,-3.465 2.77,-0.636 6.002,-0.951 9.699,-0.951 h 7.098 1.041 4.676 c 3.23,0 6.84,0.374 10.822,1.126 3.984,0.749 7.419,2.277 10.308,4.589 2.653,-2.312 6.032,-3.84 10.131,-4.589 4.097,-0.752 7.936,-1.126 11.518,-1.126 h 1.037 1.039 4.678 c 3.23,0 6.841,0.374 10.822,1.126 3.987,0.749 7.418,2.277 10.309,4.589 2.653,-2.312 6.03,-3.84 10.131,-4.589 4.096,-0.752 7.938,-1.126 11.518,-1.126 h 1.037 1.039 8.141 c 1.962,0 4.068,0.026 6.32,0.084 2.249,0.059 4.416,0.173 6.495,0.348 2.078,0.175 3.984,0.346 5.714,0.519 1.733,0.175 3.058,0.434 3.987,0.782 1.384,0.575 2.307,1.268 2.769,2.078 0.458,0.804 0.806,1.787 1.04,2.941 0.229,1.387 0.404,2.945 0.518,4.678 0.115,1.732 0.201,3.521 0.262,5.369 0.056,1.845 0.086,3.638 0.086,5.369 v 4.677 99.934 c 0,0.92 -0.289,1.7 -0.866,2.335 -0.582,0.634 -1.329,0.953 -2.252,0.953 m -68.756,-146.174 h -6.756 c -1.156,0 -2.109,-0.348 -2.856,-1.039 -0.752,-0.694 -1.128,-1.616 -1.128,-2.772 v -9.351 c 0,-0.925 0.376,-1.759 1.128,-2.511 0.747,-0.752 1.7,-1.128 2.856,-1.128 h 6.756 c 1.037,0 1.96,0.376 2.77,1.128 0.806,0.752 1.212,1.586 1.212,2.511 v 9.351 c 0,1.156 -0.376,2.078 -1.126,2.772 -0.752,0.691 -1.704,1.039 -2.856,1.039 m 28.403,0 h -6.754 c -1.041,0 -1.992,-0.348 -2.858,-1.039 -0.865,-0.694 -1.299,-1.616 -1.299,-2.772 v -9.351 c 0,-0.925 0.434,-1.759 1.299,-2.511 0.866,-0.752 1.817,-1.128 2.858,-1.128 h 6.754 c 1.039,0 1.964,0.376 2.77,1.128 0.808,0.752 1.212,1.586 1.212,2.511 v 9.351 c 0,1.156 -0.404,2.078 -1.212,2.772 -0.806,0.691 -1.731,1.039 -2.77,1.039 m -71.111,109.63 c -0.741,0.694 -1.111,1.56 -1.111,2.597 v 9.353 c 0,1.154 0.398,2.079 1.199,2.772 0.798,0.692 1.709,1.04 2.738,1.04 h 7.538 c 1.024,0 1.91,-0.348 2.651,-1.04 0.739,-0.693 1.113,-1.618 1.113,-2.772 v -9.353 c 0,-1.037 -0.374,-1.903 -1.113,-2.597 -0.741,-0.691 -1.683,-1.037 -2.824,-1.037 h -7.365 c -1.143,0 -2.083,0.346 -2.826,1.037 m 484.695,-273.822 h -12.819 c -5.194,0 -9.524,-0.322 -12.987,-0.955 -3.468,-0.635 -6.18,-1.618 -8.144,-2.942 -1.962,-1.331 -3.349,-3.062 -4.154,-5.196 -0.811,-2.139 -1.213,-4.765 -1.213,-7.88 v -2.079 c 0,-6.237 1.385,-10.422 4.157,-12.557 2.773,-2.137 6.696,-3.204 11.776,-3.204 4.042,0 7.909,0.575 11.606,1.733 3.693,1.151 7.621,2.882 11.778,5.194 z m 15.238,-42.608 c 0,-0.925 -0.343,-1.731 -1.037,-2.423 -0.693,-0.693 -1.501,-1.039 -2.424,-1.039 h -7.968 c -0.925,0 -1.733,0.346 -2.424,1.039 -0.694,0.692 -1.04,1.498 -1.04,2.423 v 3.813 c -4.157,-2.426 -8.43,-4.447 -12.816,-6.065 -4.388,-1.614 -9.008,-2.422 -13.856,-2.422 -3.699,0 -7.247,0.432 -10.652,1.297 -3.407,0.866 -6.406,2.396 -9.005,4.591 -2.599,2.191 -4.676,5.077 -6.236,8.659 -1.559,3.578 -2.339,8.079 -2.339,13.511 v 2.078 c 0,4.615 0.721,8.686 2.167,12.207 1.441,3.522 3.809,6.467 7.099,8.833 3.293,2.366 7.593,4.129 12.906,5.282 5.308,1.156 11.831,1.733 19.568,1.733 h 12.819 v 6.929 c 0,7.275 -1.387,12.352 -4.157,15.239 -2.772,2.886 -7.567,4.332 -14.375,4.332 -5.66,0 -10.625,-0.145 -14.897,-0.434 -4.271,-0.29 -8.139,-0.605 -11.602,-0.953 h -0.869 c -0.808,0 -1.53,0.175 -2.163,0.52 -0.635,0.346 -0.952,1.098 -0.952,2.252 v 6.062 c 0,1.845 1.212,2.945 3.636,3.291 3.58,0.575 7.473,1.095 11.693,1.558 4.213,0.46 9.265,0.693 15.154,0.693 12.009,0 20.634,-2.886 25.891,-8.662 5.252,-5.773 7.879,-13.741 7.879,-23.898 z m -89.884,0 c 0,-0.925 -0.348,-1.731 -1.04,-2.423 -0.693,-0.693 -1.503,-1.039 -2.424,-1.039 h -8.314 c -0.925,0 -1.73,0.342 -2.426,1.035 -0.689,0.692 -1.037,1.497 -1.037,2.42 v 56.864 c 0,4.378 -0.376,8.034 -1.126,10.974 -0.754,2.938 -1.905,5.272 -3.463,7 -1.56,1.727 -3.552,2.965 -5.976,3.717 -2.425,0.745 -5.255,1.121 -8.487,1.121 -3.697,0 -7.506,-0.633 -11.432,-1.901 -3.926,-1.266 -7.91,-2.878 -11.95,-4.84 v -72.935 c 0,-0.923 -0.344,-1.728 -1.039,-2.42 -0.692,-0.693 -1.502,-1.035 -2.425,-1.035 h -8.486 c -0.925,0 -1.705,0.346 -2.338,1.039 -0.635,0.692 -0.953,1.498 -0.953,2.423 v 88.329 c 0,0.922 0.318,1.732 0.953,2.426 0.633,0.691 1.413,1.039 2.338,1.039 h 8.659 c 0.923,0 1.703,-0.354 2.34,-1.056 0.633,-0.703 0.951,-1.526 0.951,-2.463 v -3.341 c 4.85,2.69 9.353,4.708 13.51,6.052 4.157,1.346 8.832,2.02 14.029,2.02 10.505,0 18.155,-3.118 22.947,-9.353 4.79,-6.233 7.189,-15.128 7.189,-26.67 z m -98.547,0 c 0,-0.925 -0.348,-1.731 -1.037,-2.423 -0.696,-0.693 -1.504,-1.039 -2.426,-1.039 h -8.316 c -0.923,0 -1.731,0.346 -2.422,1.039 -0.694,0.692 -1.04,1.498 -1.04,2.423 v 88.329 c 0,0.922 0.346,1.732 1.04,2.426 0.691,0.691 1.499,1.039 2.422,1.039 h 8.316 c 0.922,0 1.73,-0.348 2.426,-1.039 0.689,-0.694 1.037,-1.504 1.037,-2.426 z m 0.348,110.498 c 0,-0.924 -0.348,-1.732 -1.041,-2.426 -0.692,-0.691 -1.502,-1.037 -2.425,-1.037 h -8.832 c -0.925,0 -1.733,0.346 -2.424,1.037 -0.694,0.694 -1.039,1.502 -1.039,2.426 v 13.856 c 0,0.923 0.345,1.733 1.039,2.426 0.691,0.692 1.499,1.038 2.424,1.038 h 8.832 c 0.923,0 1.733,-0.346 2.425,-1.038 0.693,-0.693 1.041,-1.503 1.041,-2.426 z m -42.78,-110.498 c 0,-0.925 -0.289,-1.731 -0.866,-2.423 -0.579,-0.693 -1.329,-1.039 -2.251,-1.039 h -9.004 c -0.929,0 -1.676,0.346 -2.253,1.039 -0.579,0.692 -0.866,1.498 -0.866,2.423 v 123.49 c 0,0.92 0.287,1.7 0.866,2.336 0.577,0.635 1.324,0.954 2.253,0.954 h 9.004 c 0.922,0 1.672,-0.319 2.251,-0.954 0.577,-0.636 0.866,-1.416 0.866,-2.336 z m -55.767,42.608 h -12.816 c -5.196,0 -9.526,-0.322 -12.99,-0.955 -3.465,-0.635 -6.179,-1.618 -8.141,-2.942 -1.966,-1.331 -3.351,-3.062 -4.154,-5.196 -0.811,-2.139 -1.215,-4.765 -1.215,-7.88 v -2.079 c 0,-6.237 1.385,-10.422 4.155,-12.557 2.772,-2.137 6.698,-3.204 11.78,-3.204 4.04,0 7.907,0.575 11.602,1.733 3.697,1.151 7.623,2.882 11.779,5.194 z m 15.241,-42.608 c 0,-0.925 -0.348,-1.731 -1.039,-2.423 -0.694,-0.693 -1.504,-1.039 -2.424,-1.039 h -7.968 c -0.925,0 -1.733,0.346 -2.422,1.039 -0.696,0.692 -1.042,1.498 -1.042,2.423 v 3.813 c -4.157,-2.426 -8.428,-4.447 -12.814,-6.065 -4.391,-1.614 -9.008,-2.422 -13.858,-2.422 -3.697,0 -7.249,0.432 -10.654,1.297 -3.403,0.866 -6.404,2.396 -9.003,4.591 -2.597,2.191 -4.676,5.077 -6.236,8.659 -1.557,3.578 -2.337,8.079 -2.337,13.511 v 2.078 c 0,4.615 0.719,8.686 2.165,12.207 1.443,3.522 3.811,6.467 7.099,8.833 3.293,2.366 7.592,4.129 12.903,5.282 5.311,1.156 11.836,1.733 19.573,1.733 h 12.816 v 6.929 c 0,7.275 -1.384,12.352 -4.156,15.239 -2.77,2.886 -7.565,4.332 -14.377,4.332 -5.659,0 -10.624,-0.145 -14.893,-0.434 -4.274,-0.29 -8.143,-0.605 -11.604,-0.953 h -0.867 c -0.81,0 -1.532,0.175 -2.165,0.52 -0.637,0.346 -0.953,1.098 -0.953,2.252 v 6.062 c 0,1.845 1.215,2.945 3.639,3.291 3.576,0.575 7.473,1.095 11.689,1.558 4.213,0.46 9.269,0.693 15.154,0.693 12.009,0 20.638,-2.886 25.895,-8.662 5.25,-5.773 7.879,-13.741 7.879,-23.898 z m -89.887,0 c 0,-0.925 -0.345,-1.731 -1.039,-2.423 -0.691,-0.693 -1.501,-1.039 -2.426,-1.039 h -8.312 c -0.925,0 -1.73,0.346 -2.424,1.039 -0.691,0.692 -1.037,1.498 -1.037,2.423 v 56.983 c 0,8.659 -1.677,14.603 -5.024,17.838 -3.351,3.232 -7.855,4.848 -13.512,4.848 -1.385,0 -3.027,-0.086 -4.935,-0.257 -1.903,-0.175 -3.956,-0.465 -6.149,-0.869 -2.195,-0.406 -4.416,-0.924 -6.667,-1.558 -2.249,-0.635 -4.302,-1.359 -6.149,-2.164 v -74.821 c 0,-0.925 -0.346,-1.731 -1.039,-2.423 -0.694,-0.693 -1.502,-1.039 -2.422,-1.039 h -8.489 c -0.925,0 -1.705,0.346 -2.338,1.039 -0.635,0.692 -0.953,1.498 -0.953,2.423 v 123.315 c 0,0.922 0.318,1.731 0.953,2.424 0.633,0.691 1.413,1.041 2.338,1.041 h 8.659 c 0.925,0 1.703,-0.35 2.338,-1.041 0.633,-0.693 0.953,-1.502 0.953,-2.424 v -35.68 c 4.157,1.847 8.687,3.204 13.596,4.071 4.905,0.868 9.207,1.3 12.903,1.3 4.618,0 8.833,-0.693 12.644,-2.078 3.811,-1.385 7.1,-3.524 9.872,-6.409 2.772,-2.886 4.907,-6.611 6.408,-11.172 1.5,-4.561 2.251,-10.016 2.251,-16.364 z m -136.129,109.632 c -0.579,2.078 -1.675,3.118 -3.291,3.118 -1.733,0 -2.889,-1.04 -3.465,-3.118 l -15.758,-56.981 h 38.275 z m 46.416,-110.324 c 0,-1.847 -0.986,-2.77 -2.945,-2.77 h -10.22 c -0.808,0 -1.443,0.257 -1.903,0.778 -0.465,0.521 -0.809,1.126 -1.04,1.819 l -11.258,39.835 h -44.856 l -11.086,-39.835 c -0.232,-0.693 -0.636,-1.298 -1.21,-1.819 -0.581,-0.521 -1.215,-0.778 -1.908,-0.778 h -10.22 c -1.964,0 -2.942,0.923 -2.942,2.77 0,0.575 0.058,0.979 0.17,1.212 l 32.044,112.748 c 0.694,2.656 1.702,4.823 3.033,6.495 1.325,1.674 2.796,3.003 4.412,3.984 1.616,0.981 3.319,1.674 5.11,2.079 1.789,0.404 3.492,0.604 5.112,0.604 1.616,0 3.291,-0.17 5.021,-0.518 1.733,-0.346 3.403,-1.011 5.021,-1.992 1.619,-0.981 3.09,-2.31 4.419,-3.982 1.326,-1.677 2.338,-3.842 3.029,-6.495 l 32.041,-112.923 c 0.115,-0.233 0.176,-0.637 0.176,-1.212"
       style="fill:#034638;fill-opacity:1;fill-rule:nonzero;stroke:none"
       transform="matrix(1.3333333,0,0,-1.3333333,1412.2048,516.55213)"
       clip-path="url(#clipPath2)" /></g></svg>
