<?xml version="1.0" encoding="UTF-8" standalone="no"?>
<!-- Created with Inkscape (http://www.inkscape.org/) -->

<svg
   width="194.23131mm"
   height="46.740234mm"
   viewBox="0 0 194.23131 46.740235"
   version="1.1"
   id="svg1"
   xml:space="preserve"
   xmlns="http://www.w3.org/2000/svg"
   xmlns:svg="http://www.w3.org/2000/svg"><defs
     id="defs1"><clipPath
       clipPathUnits="userSpaceOnUse"
       id="clipPath2"><path
         d="M 0,1080 H 1920 V 0 H 0 Z"
         transform="translate(-1059.1536,-692.58592)"
         id="path2" /></clipPath></defs><g
     id="layer-MC0"
     transform="matrix(0.26458333,0,0,0.26458334,-241.55104,-212.92436)"><path
       id="path1"
       d="m 160.897,-301.361 h -12.819 c -5.194,0 -9.524,-0.322 -12.987,-0.955 -3.468,-0.635 -6.18,-1.618 -8.144,-2.942 -1.962,-1.331 -3.349,-3.062 -4.154,-5.196 -0.811,-2.139 -1.213,-4.765 -1.213,-7.88 v -2.079 c 0,-6.237 1.385,-10.422 4.157,-12.557 2.773,-2.137 6.696,-3.204 11.776,-3.204 4.042,0 7.909,0.575 11.606,1.733 3.693,1.151 7.621,2.882 11.778,5.194 z m 15.238,-42.608 c 0,-0.925 -0.343,-1.731 -1.037,-2.423 -0.693,-0.693 -1.501,-1.039 -2.424,-1.039 h -7.968 c -0.925,0 -1.733,0.346 -2.424,1.039 -0.694,0.692 -1.04,1.498 -1.04,2.423 v 3.813 c -4.157,-2.426 -8.43,-4.447 -12.816,-6.065 -4.388,-1.614 -9.008,-2.422 -13.856,-2.422 -3.699,0 -7.247,0.432 -10.652,1.297 -3.407,0.866 -6.406,2.396 -9.005,4.591 -2.599,2.191 -4.676,5.077 -6.236,8.659 -1.559,3.578 -2.339,8.079 -2.339,13.511 v 2.078 c 0,4.615 0.721,8.686 2.167,12.207 1.441,3.522 3.809,6.467 7.099,8.833 3.293,2.366 7.593,4.129 12.906,5.282 5.308,1.156 11.831,1.733 19.568,1.733 h 12.819 v 6.929 c 0,7.275 -1.387,12.352 -4.157,15.239 -2.772,2.886 -7.567,4.332 -14.375,4.332 -5.66,0 -10.625,-0.145 -14.897,-0.434 -4.271,-0.29 -8.139,-0.605 -11.602,-0.953 h -0.869 c -0.808,0 -1.53,0.175 -2.163,0.52 -0.635,0.346 -0.952,1.098 -0.952,2.252 v 6.062 c 0,1.845 1.212,2.945 3.636,3.291 3.58,0.575 7.473,1.095 11.693,1.558 4.213,0.46 9.265,0.693 15.154,0.693 12.009,0 20.634,-2.886 25.891,-8.662 5.252,-5.773 7.879,-13.741 7.879,-23.898 z m -89.884,0 c 0,-0.925 -0.348,-1.731 -1.04,-2.423 -0.693,-0.693 -1.503,-1.039 -2.424,-1.039 h -8.314 c -0.925,0 -1.73,0.342 -2.426,1.035 -0.689,0.692 -1.037,1.497 -1.037,2.42 v 56.864 c 0,4.378 -0.376,8.034 -1.126,10.974 -0.754,2.938 -1.905,5.272 -3.463,7 -1.56,1.727 -3.552,2.965 -5.976,3.717 -2.425,0.745 -5.255,1.121 -8.487,1.121 -3.697,0 -7.506,-0.633 -11.432,-1.901 -3.926,-1.266 -7.91,-2.878 -11.95,-4.84 v -72.935 c 0,-0.923 -0.344,-1.728 -1.039,-2.42 -0.692,-0.693 -1.502,-1.035 -2.425,-1.035 h -8.486 c -0.925,0 -1.705,0.346 -2.338,1.039 -0.635,0.692 -0.953,1.498 -0.953,2.423 v 88.329 c 0,0.922 0.318,1.732 0.953,2.426 0.633,0.691 1.413,1.039 2.338,1.039 h 8.659 c 0.923,0 1.703,-0.354 2.34,-1.056 0.633,-0.703 0.951,-1.526 0.951,-2.463 v -3.341 c 4.85,2.69 9.353,4.708 13.51,6.052 4.157,1.346 8.832,2.02 14.029,2.02 10.505,0 18.155,-3.118 22.947,-9.353 4.79,-6.233 7.189,-15.128 7.189,-26.67 z m -98.547,0 c 0,-0.925 -0.348,-1.731 -1.037,-2.423 -0.696,-0.693 -1.504,-1.039 -2.426,-1.039 h -8.316 c -0.923,0 -1.731,0.346 -2.422,1.039 -0.694,0.692 -1.04,1.498 -1.04,2.423 v 88.329 c 0,0.922 0.346,1.732 1.04,2.426 0.691,0.691 1.499,1.039 2.422,1.039 h 8.316 c 0.922,0 1.73,-0.348 2.426,-1.039 0.689,-0.694 1.037,-1.504 1.037,-2.426 z m 0.348,110.498 c 0,-0.924 -0.348,-1.732 -1.041,-2.426 -0.692,-0.691 -1.502,-1.037 -2.425,-1.037 h -8.832 c -0.925,0 -1.733,0.346 -2.424,1.037 -0.694,0.694 -1.039,1.502 -1.039,2.426 v 13.856 c 0,0.923 0.345,1.733 1.039,2.426 0.691,0.692 1.499,1.038 2.424,1.038 h 8.832 c 0.923,0 1.733,-0.346 2.425,-1.038 0.693,-0.693 1.041,-1.503 1.041,-2.426 z m -42.78,-110.498 c 0,-0.925 -0.289,-1.731 -0.866,-2.423 -0.579,-0.693 -1.329,-1.039 -2.251,-1.039 h -9.004 c -0.929,0 -1.676,0.346 -2.253,1.039 -0.579,0.692 -0.866,1.498 -0.866,2.423 v 123.49 c 0,0.92 0.287,1.7 0.866,2.336 0.577,0.635 1.324,0.954 2.253,0.954 h 9.004 c 0.922,0 1.672,-0.319 2.251,-0.954 0.577,-0.636 0.866,-1.416 0.866,-2.336 z m -55.767,42.608 h -12.816 c -5.196,0 -9.526,-0.322 -12.99,-0.955 -3.465,-0.635 -6.179,-1.618 -8.141,-2.942 -1.966,-1.331 -3.351,-3.062 -4.154,-5.196 -0.811,-2.139 -1.215,-4.765 -1.215,-7.88 v -2.079 c 0,-6.237 1.385,-10.422 4.155,-12.557 2.772,-2.137 6.698,-3.204 11.78,-3.204 4.04,0 7.907,0.575 11.602,1.733 3.697,1.151 7.623,2.882 11.779,5.194 z m 15.241,-42.608 c 0,-0.925 -0.348,-1.731 -1.039,-2.423 -0.694,-0.693 -1.504,-1.039 -2.424,-1.039 h -7.968 c -0.925,0 -1.733,0.346 -2.422,1.039 -0.696,0.692 -1.042,1.498 -1.042,2.423 v 3.813 c -4.157,-2.426 -8.428,-4.447 -12.814,-6.065 -4.391,-1.614 -9.008,-2.422 -13.858,-2.422 -3.697,0 -7.249,0.432 -10.654,1.297 -3.403,0.866 -6.404,2.396 -9.003,4.591 -2.597,2.191 -4.676,5.077 -6.236,8.659 -1.557,3.578 -2.337,8.079 -2.337,13.511 v 2.078 c 0,4.615 0.719,8.686 2.165,12.207 1.443,3.522 3.811,6.467 7.099,8.833 3.293,2.366 7.592,4.129 12.903,5.282 5.311,1.156 11.836,1.733 19.573,1.733 h 12.816 v 6.929 c 0,7.275 -1.384,12.352 -4.156,15.239 -2.77,2.886 -7.565,4.332 -14.377,4.332 -5.659,0 -10.624,-0.145 -14.893,-0.434 -4.274,-0.29 -8.143,-0.605 -11.604,-0.953 h -0.867 c -0.81,0 -1.532,0.175 -2.165,0.52 -0.637,0.346 -0.953,1.098 -0.953,2.252 v 6.062 c 0,1.845 1.215,2.945 3.639,3.291 3.576,0.575 7.473,1.095 11.689,1.558 4.213,0.46 9.269,0.693 15.154,0.693 12.009,0 20.638,-2.886 25.895,-8.662 5.25,-5.773 7.879,-13.741 7.879,-23.898 z m -89.887,0 c 0,-0.925 -0.345,-1.731 -1.039,-2.423 -0.691,-0.693 -1.501,-1.039 -2.426,-1.039 h -8.312 c -0.925,0 -1.73,0.346 -2.424,1.039 -0.691,0.692 -1.037,1.498 -1.037,2.423 v 56.983 c 0,8.659 -1.677,14.603 -5.024,17.838 -3.351,3.232 -7.855,4.848 -13.512,4.848 -1.385,0 -3.027,-0.086 -4.935,-0.257 -1.903,-0.175 -3.956,-0.465 -6.149,-0.869 -2.195,-0.406 -4.416,-0.924 -6.667,-1.558 -2.249,-0.635 -4.302,-1.359 -6.149,-2.164 v -74.821 c 0,-0.925 -0.346,-1.731 -1.039,-2.423 -0.694,-0.693 -1.502,-1.039 -2.422,-1.039 h -8.489 c -0.925,0 -1.705,0.346 -2.338,1.039 -0.635,0.692 -0.953,1.498 -0.953,2.423 v 123.315 c 0,0.922 0.318,1.731 0.953,2.424 0.633,0.691 1.413,1.041 2.338,1.041 h 8.659 c 0.925,0 1.703,-0.35 2.338,-1.041 0.633,-0.693 0.953,-1.502 0.953,-2.424 v -35.68 c 4.157,1.847 8.687,3.204 13.596,4.071 4.905,0.868 9.207,1.3 12.903,1.3 4.618,0 8.833,-0.693 12.644,-2.078 3.811,-1.385 7.1,-3.524 9.872,-6.409 2.772,-2.886 4.907,-6.611 6.408,-11.172 1.5,-4.561 2.251,-10.016 2.251,-16.364 z m -136.129,109.632 c -0.579,2.078 -1.675,3.118 -3.291,3.118 -1.733,0 -2.889,-1.04 -3.465,-3.118 l -15.758,-56.981 h 38.275 z m 46.416,-110.324 c 0,-1.847 -0.986,-2.77 -2.945,-2.77 h -10.22 c -0.808,0 -1.443,0.257 -1.903,0.778 -0.465,0.521 -0.809,1.126 -1.04,1.819 l -11.258,39.835 h -44.856 l -11.086,-39.835 c -0.232,-0.693 -0.636,-1.298 -1.21,-1.819 -0.581,-0.521 -1.215,-0.778 -1.908,-0.778 h -10.22 c -1.964,0 -2.942,0.923 -2.942,2.77 0,0.575 0.058,0.979 0.17,1.212 l 32.044,112.748 c 0.694,2.656 1.702,4.823 3.033,6.495 1.325,1.674 2.796,3.003 4.412,3.984 1.616,0.981 3.319,1.674 5.11,2.079 1.789,0.404 3.492,0.604 5.112,0.604 1.616,0 3.291,-0.17 5.021,-0.518 1.733,-0.346 3.403,-1.011 5.021,-1.992 1.619,-0.981 3.09,-2.31 4.419,-3.982 1.326,-1.677 2.338,-3.842 3.029,-6.495 l 32.041,-112.923 c 0.115,-0.233 0.176,-0.637 0.176,-1.212"
       style="fill:#034638;fill-opacity:1;fill-rule:nonzero;stroke:none"
       transform="matrix(1.3333333,0,0,-1.3333333,1412.2048,516.55213)"
       clip-path="url(#clipPath2)" /></g></svg>
