<?xml version="1.0" encoding="UTF-8"?>
<svg id="Layer_1" data-name="Layer 1" xmlns="http://www.w3.org/2000/svg" viewBox="0 0 341.13 213.74">
  <rect x="38.36" y="84.64" width="11.8" height="4.28" style="fill: #493e8a;"/>
  <path d="M62.52,70.98c-1.17,0-2.19,1.02-2.19,2.14v11.54h-10.21v2.09c0,1.23.97,2.14,2.14,2.14h12.4v-17.92h-2.15Z" style="fill: #493e8a;"/>
  <polygon points="56.86 74.6 53.49 78.02 50.12 74.6 53.49 71.23 56.86 74.6" style="fill: #493e8a;"/>
  <rect x="64.61" y="84.64" width="8.71" height="4.28" style="fill: #493e8a;"/>
  <rect x="73.28" y="84.64" width="8.71" height="4.28" style="fill: #493e8a;"/>
  <rect x="81.95" y="84.64" width="8.71" height="4.28" style="fill: #493e8a;"/>
  <rect x="90.62" y="84.64" width="8.71" height="4.28" style="fill: #493e8a;"/>
  <path d="M113.83,71v17.92h-12.38c-1.19,0-2.15-.96-2.15-2.15v-2.12h10.22v-11.5c0-1.16.99-2.15,2.15-2.15h2.15ZM106.41,93.52l2.84,2.81,2.83-2.81,3.39,3.37-3.39,3.39-2.83-2.81-2.84,2.81-3.34-3.39,3.34-3.37Z" style="fill: #493e8a;"/>
  <path d="M153.09,88.92h-37.16c-1.19,0-2.15-.96-2.15-2.15v-2.12h35.01v-4.69c0-2.25-1.57-4.68-4.68-4.68h-21.36c-1.14,0-2.13-.99-2.13-2.15v-3.41c0-6,4.38-8.96,8.96-8.96h21.64c-.68,1.01-1.29,2.41-1.49,4.28h-20.15c-2.51,0-5.32,2-4.56,5.95h19.09c6,0,8.98,4.38,8.98,8.98v8.96Z" style="fill: #493e8a;"/>
  <path d="M161.73,79.95c0-6,4.4-8.98,8.99-8.98,6,0,8.96,4.4,8.96,8.98v6.81c0,1.19-.96,2.15-2.12,2.15h-22.38c-1.19,0-2.15-.96-2.15-2.15v-2.12h8.71v-4.69ZM175.4,84.64v-4.69c0-2.25-1.57-4.68-4.68-4.68-2.23,0-4.69,1.57-4.69,4.68v4.69h9.37Z" style="fill: #493e8a;"/>
  <path d="M194.15,71v17.92h-12.38c-1.19,0-2.15-.96-2.15-2.15v-2.12h10.22v-11.49c0-1.16.99-2.15,2.15-2.15h2.15ZM187.51,66.29l-3.34-3.36,3.34-3.39,2.84,2.81,2.84-2.81,3.39,3.39-3.39,3.36-2.84-2.81-2.84,2.81Z" style="fill: #493e8a;"/>
  <path d="M204.2,60.34v24.3h-10.1v2.15c0,1.16.96,2.12,2.15,2.12h12.25v-28.58h-4.3Z" style="fill: #493e8a;"/>
  <rect x="38.36" y="127.48" width="8.71" height="4.28" style="fill: #493e8a;"/>
  <path d="M61.56,113.84v17.92h-12.38c-1.19,0-2.15-.96-2.15-2.15v-2.12h10.22v-11.5c0-1.16.99-2.15,2.15-2.15h2.15ZM54.15,136.36l2.84,2.81,2.83-2.81,3.39,3.37-3.39,3.39-2.83-2.81-2.84,2.81-3.34-3.39,3.34-3.37Z" style="fill: #493e8a;"/>
  <path d="M86.82,126.19c0,2.53.71,4.33,1.55,5.57h-5.85v-2.15c0,1.19-.96,2.15-2.15,2.15h-11.49v-4.28h13.64v-4.69c0-2.25-1.57-4.68-4.68-4.68h-7.6c.79-1.17,1.62-2.68,1.92-4.3h5.67c6,0,8.98,4.38,8.98,8.98v3.39Z" style="fill: #493e8a;"/>
  <path d="M98.97,103.18h-4.3v28.58h6.58c-.81-1.24-2.28-2.02-2.28-4.56v-24.02Z" style="fill: #493e8a;"/>
  <rect x="98.91" y="127.48" width="8.71" height="4.28" style="fill: #493e8a;"/>
  <rect x="107.58" y="127.48" width="8.71" height="4.28" style="fill: #493e8a;"/>
  <rect x="116.25" y="127.48" width="8.71" height="4.28" style="fill: #493e8a;"/>
  <rect x="124.92" y="127.48" width="8.71" height="4.28" style="fill: #493e8a;"/>
  <rect x="133.6" y="127.48" width="8.71" height="4.28" style="fill: #493e8a;"/>
  <rect x="142.27" y="127.48" width="8.71" height="4.28" style="fill: #493e8a;"/>
  <rect x="150.94" y="127.48" width="8.71" height="4.28" style="fill: #493e8a;"/>
  <rect x="159.61" y="127.48" width="8.71" height="4.28" style="fill: #493e8a;"/>
  <path d="M182.81,113.84v17.92h-12.38c-1.19,0-2.15-.96-2.15-2.15v-2.12h10.22v-11.5c0-1.16.99-2.15,2.15-2.15h2.15ZM175.4,136.36l2.84,2.81,2.83-2.81,3.39,3.37-3.39,3.39-2.83-2.81-2.84,2.81-3.34-3.39,3.34-3.37Z" style="fill: #493e8a;"/>
  <path d="M194.13,114.59v18.43c0,4.02-1.97,6.68-4.63,8-.45-1.4-1.34-2.91-2.02-3.87,1.34-.74,2.38-2.1,2.38-4.13v-16.27l4.28-2.15Z" style="fill: #493e8a;"/>
  <path d="M204.19,103.18v24.3h-10.1v2.15c0,1.16.96,2.12,2.15,2.12h12.25v-28.58h-4.3Z" style="fill: #493e8a;"/>
  <rect x="216.12" y="103.18" width="4.3" height="28.58" style="fill: #493e8a;"/>
  <rect x="216.12" y="60.34" width="4.3" height="28.58" style="fill: #493e8a;"/>
  <polygon points="289.92 107.13 235.64 130.75 235.64 102.61 273.13 87.32 250.92 87.32 250.92 60.65 289.92 60.65 289.92 107.13" style="fill: #8fd2e3;"/>
  <rect x="289.92" y="31.4" width="29.24" height="29.24" style="fill: #5d9fdd;"/>
  <path d="M42.63,174.38c-.26,0-.55-.02-.84-.07-.3-.04-.6-.14-.89-.28-.3-.14-.58-.35-.84-.61-.27-.26-.5-.62-.69-1.07-.06-.15-.12-.33-.18-.52-.06-.2-.11-.43-.16-.69-.05-.26-.08-.56-.11-.89-.03-.33-.04-.71-.04-1.14,0-.27,0-.56.02-.85.02-.3.05-.6.11-.9.06-.3.14-.59.24-.88.1-.29.24-.56.42-.81.25-.36.53-.64.84-.84.31-.2.63-.36.95-.46.32-.1.62-.16.92-.18.29-.02.54-.03.74-.03h3.03v-1.18h2.26v9.68h2.05v1.74h-7.8ZM41.47,171.48c.11.26.25.46.42.61.17.15.34.27.53.35.19.08.38.14.57.16.19.03.37.04.54.04h2.58c0-.09,0-.18,0-.28,0-.1,0-.19,0-.27v-6.22h-2.59c-.15,0-.31,0-.48.03-.17.02-.34.06-.51.13-.17.07-.33.16-.49.28-.16.12-.3.28-.42.47-.06.09-.11.21-.17.33-.05.13-.1.29-.14.48-.04.19-.07.42-.1.67-.03.26-.04.56-.04.91,0,.4.01.74.03,1.01.02.27.05.5.08.67.03.18.06.31.09.41.03.09.06.16.08.21ZM41.69,161.21v-1.8h2.25v1.8h-2.25ZM44.72,161.21v-1.8h2.25v1.8h-2.25ZM50.21,174.37v-1.74h4.25v1.75h-4.25ZM54.29,174.37v-1.74h4.25v1.75h-4.25ZM58.37,174.37v-1.74h4.25v1.75h-4.25ZM62.44,174.37v-1.74h4.25v1.75h-4.25ZM66.52,174.37v-1.74h4.25v1.75h-4.25ZM70.6,174.37v-1.74h.23c.42,0,.76-.05,1.01-.14.25-.09.46-.25.62-.47.17-.24.28-.51.33-.8.05-.3.08-.61.09-.93,0-.04,0-.08,0-.12v-.13h0v-5.9h2.25v5.9l.05,1.4c.08.27.19.49.36.65.16.16.35.28.56.37s.43.14.66.17c.23.03.45.04.66.04h.25v1.74h-.92c-.22,0-.45,0-.67-.02-.23-.02-.46-.05-.69-.1-.23-.05-.46-.13-.68-.23-.22-.1-.43-.24-.63-.42-.2.18-.41.31-.63.42-.22.1-.44.18-.67.23-.23.05-.47.09-.72.1-.25.01-.5.02-.76.02h-.68ZM71.51,177.75v-1.8h2.25v1.8h-2.25ZM74.55,177.75v-1.8h2.25v1.8h-2.25ZM77.48,174.37v-1.74h.23c.42,0,.76-.05,1.01-.14.25-.09.46-.25.62-.47.17-.24.28-.51.33-.8.05-.3.08-.61.09-.93,0-.01,0-.04,0-.08,0-.04,0-.16,0-.34v-2.46c0-.69,0-1.57,0-2.63,0-1.06,0-2.36,0-3.91h2.25v9.17l.05,1.4c.08.27.19.49.36.65.16.16.35.28.56.37s.43.14.66.17c.23.03.45.04.66.04h.25v1.74h-.92c-.22,0-.45,0-.67-.02-.23-.02-.46-.05-.69-.1-.23-.05-.46-.13-.68-.23-.22-.1-.43-.24-.63-.42-.2.18-.41.31-.63.42-.22.1-.44.18-.67.23-.23.05-.47.09-.72.1-.25.01-.5.02-.76.02h-.68ZM84.31,172.64h1.77c-.25-.4-.41-.85-.48-1.35-.09-.63-.14-1.27-.14-1.92,0-.27,0-.56.01-.87,0-.31.04-.62.08-.94.05-.32.12-.64.22-.95.1-.31.23-.6.4-.87.21-.35.45-.63.73-.84.28-.21.57-.37.87-.49.3-.11.6-.19.91-.22.3-.03.58-.05.84-.05h2.09v-1.42h2.25v1.42h2.09c.28,0,.57.02.87.06s.6.11.89.23.58.28.85.49c.27.21.52.49.74.83.36.58.57,1.18.62,1.81.06.64.08,1.24.08,1.82,0,.35-.01.68-.03,1-.02.32-.06.63-.1.93-.08.58-.32,1.14-.72,1.69-.25.33-.51.59-.79.78-.28.19-.56.32-.85.42-.29.09-.57.15-.85.17-.28.02-.55.03-.8.03h-11.57v-1.74ZM91.61,165.88h-1.16c-.16,0-.33,0-.52.02-.19.01-.39.05-.58.1-.2.05-.39.14-.58.25-.19.11-.35.26-.49.45-.16.24-.29.56-.37.97-.08.41-.11.99-.11,1.74,0,.43.02.85.06,1.25.04.4.15.76.35,1.08.09.17.21.31.34.43.14.12.29.21.48.28.18.07.39.12.63.16.24.03.52.05.83.05h1.12v-6.76ZM94.99,172.64c.31,0,.58-.02.82-.05.24-.03.45-.08.64-.16.19-.07.35-.17.48-.28.14-.12.25-.26.34-.43.19-.32.3-.68.34-1.08.04-.4.06-.82.06-1.25,0-.65-.03-1.19-.1-1.64-.07-.44-.2-.8-.39-1.07-.13-.19-.29-.34-.47-.45-.18-.11-.37-.19-.57-.25-.2-.05-.39-.09-.59-.1-.2-.01-.37-.02-.53-.02h-1.16v6.76h1.12ZM101.22,174.37v-1.74h3.03l-2.68-11.78h2.26l2.68,11.78h.51c.42,0,.76-.05,1.01-.14.25-.09.46-.25.62-.47.18-.25.3-.53.35-.84.05-.31.08-.64.08-.98v-9.34h2.25v10.02c0,.35-.03.67-.08.94-.05.28-.13.52-.22.74-.09.21-.2.4-.32.56-.12.16-.25.3-.38.42-.21.19-.42.34-.65.45-.22.11-.45.19-.69.25-.24.06-.48.09-.74.11-.25.02-.51.02-.78.02h-6.26ZM101.68,159.35h1.14s.07-.02.07-.06c0-.01,0-.02,0-.03,0,0-.03-.02-.07-.03-.04-.02-.12-.04-.22-.07-.1-.03-.25-.08-.43-.14-.18-.06-.31-.14-.39-.24-.08-.1-.12-.23-.12-.39,0-.21.05-.36.16-.45.11-.08.25-.13.42-.13h1.41v.54h-1.14s-.03,0-.07,0h0s-.05.02-.05.05c0,.01.01.03.03.04.02.02.06.03.11.05.05.02.13.04.22.08.09.03.21.07.36.12.2.07.35.15.45.25.1.1.15.25.15.43,0,.16-.05.3-.14.4-.09.1-.22.15-.38.15h-1.5v-.57ZM112.8,160.85h2.26v13.53h-2.26v-13.53ZM123.47,169.41c0,.43.02.85.06,1.25s.15.75.35,1.07c.09.17.21.31.34.43.14.12.29.21.48.28.18.07.39.12.64.16.24.03.52.05.83.05h4.5c.31,0,.58-.02.82-.05.24-.03.45-.08.64-.16.19-.07.35-.17.48-.28.14-.12.25-.26.34-.43.19-.32.31-.68.35-1.08.04-.4.06-.83.07-1.28v-5.24h2.34l-.02,5.28c0,.34,0,.67-.02.98-.02.31-.05.62-.11.92-.06.3-.15.58-.26.86-.11.28-.26.55-.45.82-.25.33-.51.59-.79.78-.28.19-.56.32-.85.42-.29.09-.57.15-.85.17s-.55.03-.79.03h-6.27c-.24,0-.5,0-.78-.03-.28-.02-.56-.07-.85-.17-.29-.09-.58-.23-.86-.42-.29-.19-.55-.44-.8-.78-.19-.25-.34-.52-.45-.81-.11-.29-.2-.58-.25-.89-.06-.31-.09-.62-.11-.95-.02-.32-.02-.65-.02-.98v-3.01h2.34v3.06ZM126.33,162.61v-1.8h2.25v1.8h-2.25ZM129.36,162.61v-1.8h2.25v1.8h-2.25ZM140.76,174.37c-.27,0-.53,0-.78-.02-.25-.02-.5-.05-.74-.11-.24-.06-.47-.14-.69-.25-.22-.11-.44-.26-.65-.45-.13-.12-.26-.26-.38-.42-.12-.16-.23-.35-.32-.56-.09-.21-.16-.46-.22-.74-.05-.28-.08-.59-.08-.94v-10.03h2.25v9.35c0,.34.03.67.08.98.05.31.17.59.35.84.16.22.37.38.62.47.25.09.59.14,1.01.14h1.1v1.74h-1.56ZM142.14,174.37v-1.74h4.25v1.75h-4.25ZM146.21,174.37v-1.74h4.25v1.75h-4.25ZM150.29,174.37v-1.74h4.25v1.75h-4.25ZM154.37,174.37v-1.74h4.25v1.75h-4.25ZM158.44,174.37v-1.74h4.25v1.75h-4.25ZM162.52,174.37v-1.74h.23c.42,0,.76-.05,1.01-.14.25-.09.46-.25.62-.47.17-.24.28-.51.33-.8.05-.3.08-.61.09-.93,0-.04,0-.08,0-.12v-.13h0v-5.9h2.25v5.9l.05,1.4c.08.27.19.49.36.65.16.16.35.28.56.37.21.08.43.14.66.17.23.03.45.04.66.04h.25v1.74h-.92c-.22,0-.45,0-.67-.02-.23-.02-.46-.05-.69-.1-.23-.05-.46-.13-.68-.23-.22-.1-.43-.24-.63-.42-.2.18-.41.31-.63.42-.22.1-.44.18-.67.23-.23.05-.47.09-.72.1-.25.01-.5.02-.76.02h-.68ZM163.44,177.75v-1.8h2.25v1.8h-2.25ZM166.47,177.75v-1.8h2.25v1.8h-2.25ZM177.69,164.11c.14,0,.29,0,.45.02.16.02.33.05.5.09.17.05.35.12.52.21.17.09.34.21.5.36.16.16.29.34.39.53.09.19.17.39.21.6.05.21.08.42.09.64,0,.14,0,.29,0,.43v.22c-.01.6-.09,1.15-.23,1.66-.14.51-.32.98-.53,1.42-.22.44-.46.85-.73,1.23-.27.38-.53.75-.8,1.11h3.06v1.74h-11.79v-1.74h2.96c-.26-.36-.53-.73-.8-1.11-.27-.38-.51-.79-.73-1.23-.22-.44-.39-.91-.53-1.42-.14-.51-.21-1.06-.23-1.66v-.22c0-.14,0-.29,0-.43.01-.22.04-.43.09-.64.05-.21.12-.41.21-.6.09-.19.22-.37.39-.53.16-.15.32-.27.5-.36.17-.09.35-.16.52-.21.17-.05.34-.08.5-.09.16-.02.31-.02.45-.02h5ZM172.36,167.41c0,.16.02.32.03.46.03.23.09.49.2.76.11.28.25.56.41.86.16.3.34.59.54.9.2.3.39.59.59.87.19.28.38.53.57.77.18.24.34.44.46.61h.07c.13-.17.28-.37.46-.61.18-.24.37-.49.57-.77.2-.28.39-.57.59-.87.19-.3.37-.6.54-.9.16-.3.3-.58.41-.86.11-.28.18-.53.2-.76.01-.14.02-.3.03-.46v-.47c-.01-.14-.03-.28-.06-.4-.03-.12-.06-.21-.1-.26-.23-.28-.62-.42-1.19-.42h-2.96c-.57,0-.96.14-1.19.42-.05.06-.09.14-.11.26-.02.12-.04.25-.04.4,0,.09,0,.19,0,.28v.19h0ZM189.19,174.49c-.31,0-.64,0-1.01-.03-.36-.02-.73-.06-1.1-.14-.37-.07-.73-.18-1.08-.33-.35-.14-.67-.35-.95-.6-.02-.01-.05-.04-.08-.08-.21.23-.45.41-.7.55-.25.14-.52.25-.78.32-.27.08-.54.13-.81.15-.27.03-.53.04-.77.04h-1.01v-1.74h.38c.15,0,.32,0,.52-.02.19-.01.39-.05.59-.12.2-.07.39-.17.57-.31.18-.14.34-.34.46-.6.06-.12.12-.3.19-.55.07-.25.12-.61.14-1.09,0-.13,0-.24,0-.35v-.31c0-.28.01-.61.04-.98.03-.37.08-.75.17-1.13.09-.38.22-.76.4-1.12.17-.36.41-.68.71-.95.28-.26.6-.47.95-.61.35-.14.71-.25,1.08-.32.37-.07.73-.11,1.1-.13.36-.02.7-.02,1.01-.02s.64,0,1,.02c.36.02.73.06,1.09.13.37.07.73.18,1.08.32.35.14.67.35.95.61.3.27.54.59.71.95.17.36.3.74.39,1.12.09.38.14.75.17,1.11.03.36.04.67.04.93,0,.79-.07,1.46-.2,2.02-.13.56-.31,1.03-.53,1.41h1.81v1.74h-3.54l-2.99.11ZM186.72,166.57c-.2.24-.33.5-.42.78-.08.28-.14.58-.17.88-.03.25-.04.49-.04.74v.45c0,.19,0,.37,0,.55.02.34.07.68.16,1.01.09.33.25.64.49.92.17.19.35.34.55.45s.4.2.61.25c.21.06.43.09.65.11.22.02.43.03.64.03s.43,0,.65-.03.43-.06.64-.11c.21-.06.41-.14.6-.25.19-.11.38-.26.55-.45.17-.19.3-.39.39-.6.09-.21.16-.43.2-.66.04-.23.07-.46.08-.69,0-.23,0-.46,0-.69v-.61c0-.17,0-.35-.03-.53-.02-.19-.05-.37-.1-.56-.05-.19-.12-.36-.2-.53-.08-.17-.19-.32-.33-.46-.17-.18-.35-.33-.55-.43-.2-.11-.4-.19-.62-.25-.21-.06-.43-.09-.65-.11-.22-.02-.43-.02-.64-.02-.18,0-.39,0-.61.02-.22.02-.45.05-.67.11-.22.06-.44.14-.65.25-.21.11-.39.25-.55.43ZM195.39,174.38v-1.74h7.28c.07,0,.15,0,.25,0,.09,0,.18-.04.26-.11.08-.06.12-.13.13-.2.01-.07.02-.14.02-.23v-4.81c0-.15-.02-.31-.05-.48-.03-.17-.11-.33-.25-.49-.15-.19-.33-.32-.53-.37-.2-.05-.39-.08-.57-.08h-5.05v-1.74h5.82c.43,0,.84.07,1.21.21.37.14.68.33.91.58.22.21.4.52.54.92.14.4.21.9.21,1.49v5.29h1.84v1.74h-12.05ZM199.9,177.75v-1.8h2.25v1.8h-2.25ZM207.25,174.37v-1.74h.23c.42,0,.76-.05,1.01-.14.25-.09.46-.25.62-.47.17-.24.28-.51.33-.8.05-.3.08-.61.09-.93,0-.01,0-.04,0-.08,0-.04,0-.16,0-.34v-2.46c0-.69,0-1.57,0-2.63,0-1.06,0-2.36,0-3.91h2.25v9.17l.05,1.4c.08.27.19.49.36.65.16.16.35.28.56.37.21.08.43.14.66.17.23.03.45.04.66.04h.25v1.74h-.92c-.22,0-.45,0-.67-.02-.23-.02-.46-.05-.69-.1-.23-.05-.46-.13-.68-.23-.22-.1-.43-.24-.63-.42-.2.18-.41.31-.63.42-.22.1-.44.18-.67.23-.23.05-.47.09-.72.1-.25.01-.5.02-.76.02h-.68ZM214.12,174.37v-1.74h1.1c.42,0,.76-.05,1.01-.14.25-.09.46-.25.62-.47.18-.25.3-.53.35-.84.05-.31.08-.64.08-.98v-9.35h2.25v10.03c0,.35-.03.67-.08.94-.05.28-.13.52-.22.74-.09.21-.2.4-.32.56s-.25.3-.38.42c-.21.19-.42.34-.65.45-.22.11-.45.19-.69.25-.24.06-.48.09-.74.11-.25.02-.51.02-.78.02h-1.56Z" style="fill: #5d9fdd;"/>
</svg>