<?xml version="1.0" encoding="UTF-8"?>
<svg id="Layer_1" data-name="Layer 1" xmlns="http://www.w3.org/2000/svg" viewBox="0 0 451.76 176.19">
  <g>
    <path d="M374.27,84.65c-4.42-2.85-7.6-5.48-9.53-7.87,4.42-6.54,8.74-14.32,12.98-23.34,4.42-9.21,8.05-18.51,10.91-27.9l19.33,6.49c-1.57,9.11-4.42,19.11-8.56,29.97-2.58,6.72-5.23,12.73-7.94,18.02-2.72,5.29-4.67,8.91-5.87,10.84-3.23-1.2-7-3.27-11.32-6.22h0Z" style="fill: #5bbabb;"/>
    <path d="M325.53,84.65c-4.42-2.85-7.6-5.48-9.53-7.87,4.42-6.54,8.74-14.32,12.98-23.34,4.42-9.21,8.05-18.51,10.91-27.9l19.33,6.49c-1.57,9.11-4.42,19.11-8.56,29.97-2.58,6.72-5.23,12.73-7.94,18.02-2.72,5.29-4.67,8.91-5.87,10.84-3.23-1.2-7-3.27-11.32-6.22h0Z" style="fill: #d8bfb9;"/>
    <path d="M384.03,140.91c-4.42-2.85-7.6-5.48-9.53-7.87,4.42-6.54,8.74-14.32,12.98-23.34,4.42-9.21,8.05-18.51,10.91-27.9l19.33,6.49c-1.57,9.11-4.42,19.11-8.56,29.97-2.58,6.72-5.23,12.73-7.94,18.02-2.72,5.29-4.67,8.91-5.87,10.84-3.23-1.2-7-3.27-11.32-6.22h0Z" style="fill: #313641;"/>
    <path d="M335.29,140.91c-4.42-2.85-7.6-5.48-9.53-7.87,4.42-6.54,8.74-14.32,12.98-23.34,4.42-9.21,8.05-18.51,10.91-27.9l19.33,6.49c-1.57,9.11-4.42,19.11-8.56,29.97-2.58,6.72-5.23,12.73-7.94,18.02-2.72,5.29-4.67,8.91-5.87,10.84-3.23-1.2-7-3.27-11.32-6.22h0Z" style="fill: #8097cc;"/>
  </g>
  <g>
    <path d="M40.3,49.17l4.4-5.64c1.71,1.37,3.39,2.73,5.03,4.09s3.13,2.74,4.47,4.16c1.33,1.42,2.39,2.9,3.18,4.44s1.18,3.18,1.18,4.91c0,2.22-.5,4.13-1.5,5.72s-2.37,2.83-4.11,3.69c-1.75.86-3.76,1.3-6.03,1.3-3.76,0-6.64-.93-8.64-2.78-2-1.85-3-4.18-3-6.98,0-2.33.57-4.41,1.72-6.25s2.61-3.73,4.4-5.68l-1.1-.99h0ZM46.08,36.48l-4.71,4.68-4.6-4.68,4.6-4.63,4.71,4.63ZM51,58.98c-.56-.77-1.24-1.54-2.05-2.3s-1.6-1.43-2.37-2.01c-.75.68-1.48,1.4-2.17,2.19s-1.27,1.55-1.72,2.33-.68,1.5-.68,2.2c0,.92.42,1.65,1.27,2.19s2.05.8,3.61.8,2.87-.26,3.69-.79c.83-.52,1.24-1.36,1.24-2.48,0-.64-.28-1.35-.83-2.11h0ZM55.55,36.48l-4.65,4.68-4.65-4.68,4.65-4.63,4.65,4.63Z" style="fill: #313641;"/>
    <path d="M73.76,64.09c1.5-.26,2.71-.72,3.64-1.37.92-.65,1.38-1.55,1.38-2.72s-.54-2.43-1.61-3.75c-1.07-1.31-2.53-2.64-4.37-3.96s-3.92-2.55-6.23-3.68l3.24-6.77c2.09,1.03,4.07,2.16,5.95,3.38,1.88,1.22,3.55,2.57,5.02,4.03s2.62,3.07,3.47,4.81,1.27,3.63,1.27,5.68c0,2.88-.65,5.21-1.96,6.99-1.31,1.78-3.17,3.09-5.58,3.92-2.42.83-5.3,1.24-8.64,1.24-1.45,0-2.8-.05-4.07-.15-1.27-.1-2.51-.28-3.71-.55v-7.56c1.22.24,2.5.45,3.85.61,1.34.16,2.51.24,3.51.24,1.73,0,3.35-.13,4.85-.39h0Z" style="fill: #313641;"/>
    <path d="M97.16,32.56v26c0,2.12.33,3.62.98,4.5s1.9,1.31,3.76,1.31h.7v7.58h-.7c-4.08,0-7.07-1.06-8.97-3.18s-2.85-5.35-2.85-9.67v-26.53h7.08Z" style="fill: #313641;"/>
    <path d="M118.54,64.37v7.58h-17.06v-7.58h17.06Z" style="fill: #313641;"/>
    <path d="M134.47,64.37v7.58h-17.06v-7.58h17.06Z" style="fill: #313641;"/>
    <path d="M150.4,64.37v7.58h-17.06v-7.58h17.06Z" style="fill: #313641;"/>
    <path d="M166.33,64.37v7.58h-17.06v-7.58h17.06Z" style="fill: #313641;"/>
    <path d="M182.26,64.37v7.58h-17.06v-7.58h17.06Z" style="fill: #313641;"/>
    <path d="M198.19,64.37v7.58h-17.06v-7.58h17.06Z" style="fill: #313641;"/>
    <path d="M214.12,64.37v7.58h-17.06v-7.58h17.06Z" style="fill: #313641;"/>
    <path d="M218.38,80.35l-4.71,4.68-4.6-4.68,4.6-4.63,4.71,4.63ZM215.2,64.37v7.58h-2.25v-7.58h2.25ZM214.52,71.95v-7.58h4.51c1.52,0,2.56-.46,3.12-1.38.56-.92.83-2.1.83-3.52,0-1.26-.14-2.64-.44-4.13-.29-1.5-.59-2.96-.89-4.41l6.91-1.78c.36,1.71.64,3.41.84,5.09s.31,3.28.31,4.81c0,2.46-.33,4.67-.98,6.61-.66,1.95-1.77,3.48-3.33,4.61s-3.69,1.69-6.37,1.69h-4.51ZM227.85,80.35l-4.65,4.68-4.65-4.68,4.65-4.63,4.65,4.63Z" style="fill: #313641;"/>
    <path d="M250.49,71.64c-.77-.21-1.41-.47-1.92-.79-.45,2.8-1.38,5.32-2.79,7.56s-3.29,4.11-5.65,5.62c-2.36,1.51-5.19,2.6-8.5,3.26l-2.59-6.94c2.78-.62,5.14-1.44,7.09-2.47s3.42-2.37,4.44-4.05,1.52-3.76,1.52-6.26c0-1.69-.25-3.57-.75-5.62-.5-2.06-1.06-4.01-1.68-5.85l6.99-2.31,1.64,6.29c.34,1.3.84,2.34,1.51,3.12.67.78,1.63,1.17,2.89,1.17h1.1v7.58h-.79c-.9,0-1.74-.1-2.51-.31h0Z" style="fill: #313641;"/>
    <path d="M254.84,64.37c2.03,0,3.34-.49,3.92-1.48s.88-2.42.88-4.3v-26.03h7.08v26.56c0,4.23-.93,7.43-2.8,9.59s-4.9,3.24-9.09,3.24h-2.14v-7.58h2.17,0Z" style="fill: #313641;"/>
    <path d="M279.85,71.92h-7.05v-39.36h7.05v39.36Z" style="fill: #313641;"/>
    <path d="M57.28,140.54c-1.34-.47-2.44-1.19-3.33-2.17-.89-.98-1.56-2.23-2.03-3.75-1.11.92-2.24,1.6-3.41,2.05s-2.43.66-3.81.66c-3.04,0-5.58-.83-7.62-2.48-2.03-1.65-3.04-4.07-3.04-7.24,0-1.75.39-3.32,1.17-4.71s1.84-2.63,3.18-3.72c1.35-1.09,2.9-2.05,4.65-2.86s3.61-1.53,5.57-2.13l-.2-1.36,6.37-1.3,2.65,17.96c.17,1.22.63,2.22,1.38,3,.75.78,1.83,1.17,3.24,1.17h.84v7.58h-.96c-1.79,0-3.35-.23-4.68-.7h0ZM48.56,103.69l-4.71,4.68-4.6-4.68,4.6-4.63,4.71,4.63ZM50.42,125.4c-.04-.32-.09-.65-.17-.99l-.54-3.27c-1.15.39-2.24.82-3.3,1.28s-1.99.95-2.8,1.47c-.82.52-1.46,1.07-1.93,1.65s-.7,1.18-.7,1.8c0,.89.33,1.58,1,2.07.67.5,1.54.75,2.64.75.92,0,1.83-.14,2.74-.42.9-.28,1.65-.71,2.24-1.3.59-.58.89-1.31.89-2.17,0-.26-.02-.56-.05-.87h0ZM58.03,103.69l-4.65,4.68-4.65-4.68,4.65-4.63,4.65,4.63Z" style="fill: #313641;"/>
    <path d="M67.17,149.65l-4.71,4.68-4.6-4.68,4.6-4.63,4.71,4.63ZM63.99,133.66v7.58h-2.25v-7.58h2.25ZM77.97,121.59l.56,7.78c.06.98.26,1.78.61,2.43.35.64.86,1.11,1.54,1.41s1.54.45,2.59.45h.59v7.58h-.65c-1.28,0-2.43-.16-3.44-.48s-1.91-.76-2.68-1.32c-.77-.56-1.44-1.22-2-1.97-1.11,1.2-2.46,2.13-4.05,2.79s-3.27.99-5.06.99h-2.71v-7.58h2.71c2.12,0,3.6-.38,4.43-1.16s1.24-2.13,1.24-4.09c0-1.05-.02-2.08-.07-3.09s-.12-1.99-.21-2.94l6.6-.79h0ZM76.64,149.65l-4.65,4.68-4.65-4.68,4.65-4.63,4.65,4.63Z" style="fill: #313641;"/>
    <path d="M88.33,131.48c-.29-.82-.52-1.67-.69-2.55s-.25-1.7-.25-2.45c0-2.2.56-4.21,1.66-6.05,1.11-1.83,2.58-3.3,4.43-4.41,1.84-1.11,3.88-1.66,6.12-1.66,1.99,0,3.85.36,5.57,1.08s3.49,1.71,5.32,2.94l-2.74,6.2c-1.28-.75-2.52-1.38-3.74-1.89s-2.52-.76-3.91-.76c-.94,0-1.86.19-2.76.58s-1.64.93-2.23,1.64-.88,1.54-.88,2.52c0,.92.2,1.78.61,2.59.4.81.89,1.49,1.44,2.05.56.56,1.02.93,1.4,1.14.06,0,.14,0,.24-.03s.2-.04.3-.05l13.39-3.22v7.58c-2.37.73-4.67,1.38-6.91,1.93s-4.43,1.03-6.59,1.41-4.27.68-6.35.87c-2.08.2-4.13.3-6.16.3h-2.88v-7.58h6.63c-.39-.64-.74-1.37-1.03-2.19h0Z" style="fill: #313641;"/>
    <path d="M123.38,101.85v26c0,2.12.33,3.62.98,4.5s1.9,1.31,3.76,1.31h.7v7.58h-.7c-4.08,0-7.07-1.06-8.97-3.18-1.9-2.12-2.85-5.35-2.85-9.67v-26.53h7.08Z" style="fill: #313641;"/>
    <path d="M144.76,133.66v7.58h-17.06v-7.58h17.06Z" style="fill: #313641;"/>
    <path d="M143.63,141.25l.03-7.58h1.07c1,0,1.87-.36,2.62-1.07.75-.71,1.48-1.64,2.17-2.78s1.41-2.34,2.16-3.61c.74-1.27,1.57-2.48,2.49-3.62.92-1.15,2-2.08,3.24-2.79s2.71-1.07,4.43-1.07c2.1,0,3.93.44,5.46,1.31,1.53.88,2.78,2.06,3.75,3.55.97,1.5,1.61,3.16,1.93,5,.23,1.24.55,2.24.96,2.99.42.75.9,1.29,1.45,1.61s1.13.48,1.73.48h.73v7.58h-.76c-1.2,0-2.39-.27-3.55-.82s-2.1-1.23-2.79-2.06c-.92,1.2-1.96,2.09-3.12,2.66s-2.56.86-4.21.86c-1.3,0-2.53-.19-3.69-.56s-2.3-.9-3.4-1.58-2.2-1.45-3.32-2.34c-.7.73-1.4,1.39-2.11,1.96s-1.54,1.03-2.48,1.37c-.94.34-2.12.51-3.55.51h-1.24.01ZM159.89,126.75c-.65.55-1.22,1.21-1.72,1.99-.5.78-.92,1.54-1.26,2.27.58.55,1.15,1.03,1.69,1.44.55.42,1.06.75,1.55,1.02.66.36,1.26.61,1.82.76.56.15,1.05.23,1.48.23,1.07,0,1.85-.36,2.33-1.07s.72-1.58.72-2.59c0-1.33-.39-2.48-1.18-3.42s-1.87-1.42-3.24-1.42c-.81,0-1.54.27-2.19.82h0Z" style="fill: #313641;"/>
    <path d="M184.4,112.54l-4.71,4.68-4.6-4.68,4.6-4.63,4.71,4.63ZM178.74,133.66v7.58h-2v-7.58h2ZM192.67,121.59l.56,7.78c.05.98.26,1.78.61,2.43.35.64.86,1.11,1.54,1.41.68.3,1.54.45,2.59.45h.59v7.58h-.65c-1.28,0-2.43-.16-3.44-.48s-1.91-.76-2.68-1.32c-.77-.56-1.44-1.22-2-1.97-1.11,1.2-2.46,2.13-4.05,2.79s-3.27.99-5.06.99h-2.71v-7.58h2.71c2.12,0,3.6-.38,4.43-1.16s1.24-2.13,1.24-4.09c0-1.05-.02-2.08-.07-3.09-.05-1.01-.12-1.99-.21-2.94l6.6-.79h0ZM193.88,112.54l-4.65,4.68-4.65-4.68,4.65-4.63,4.65,4.63Z" style="fill: #313641;"/>
    <path d="M202.23,133.66c1.9,0,3.67-.14,5.32-.42,1.64-.28,3.28-.7,4.91-1.26s3.33-1.24,5.12-2.05,3.76-1.73,5.92-2.76c-1.43-.52-2.75-1.03-3.96-1.51s-2.3-.9-3.27-1.27c-.97-.37-1.79-.66-2.47-.87-.68-.22-1.18-.33-1.52-.33-1.05,0-1.99.32-2.82.96-.83.64-1.52,1.32-2.09,2.06l-1.36,1.69-5.92-2.88,1.1-1.8c1.3-2.12,2.86-3.88,4.69-5.29,1.83-1.4,3.97-2.1,6.41-2.1,1.03,0,2.24.24,3.61.72s2.86,1.08,4.45,1.81,3.25,1.45,4.95,2.19,3.39,1.35,5.08,1.85,3.28.77,4.81.8v6.94c-1.3.19-2.54.49-3.74.92s-2.47.97-3.82,1.65-2.92,1.5-4.71,2.45c-2.41,1.28-4.67,2.37-6.79,3.28-2.12.91-4.3,1.61-6.53,2.09s-4.72.72-7.46.72h-4.71v-7.58h4.79ZM221.65,149.65l-4.88,4.88-4.88-4.88,4.88-4.88,4.88,4.88Z" style="fill: #313641;"/>
    <path d="M241.86,141.15c-.95-.07-1.92-.14-2.92-.21v-7.28c1.17.09,2.3.17,3.41.23,1.11.06,2.09.09,2.93.09h1.17c.35,0,.65,0,.92-.03-.47-2.33-.93-4.49-1.4-6.49-.46-1.99-1.03-4.22-1.72-6.7-.69-2.47-1.47-5.02-2.35-7.66-.89-2.63-1.88-5.16-2.99-7.58l6.46-2.82c1.09,2.56,2.09,5.22,3,7.99.91,2.77,1.73,5.46,2.44,8.05.71,2.59,1.32,4.93,1.82,7.02.5,2.09,1,4.36,1.51,6.82,1.18-.47,2.17-1.16,2.96-2.07s1.39-2.09,1.79-3.52.61-3.19.61-5.26v-19.88h7.02v20.16c0,3.23-.4,5.98-1.21,8.23-.81,2.25-1.92,4.1-3.33,5.54-1.41,1.44-3.04,2.56-4.91,3.36s-3.84,1.35-5.95,1.65c-2.1.3-4.24.45-6.4.45-.96,0-1.92-.03-2.86-.1h0Z" style="fill: #313641;"/>
    <path d="M279.85,141.22h-7.05v-39.36h7.05v39.36Z" style="fill: #313641;"/>
  </g>
</svg>