<?xml version="1.0" encoding="UTF-8" standalone="no"?>
<!-- Created with Inkscape (http://www.inkscape.org/) -->

<svg
   width="66.856171mm"
   height="33.00938mm"
   viewBox="0 0 66.856172 33.009381"
   version="1.1"
   id="svg1"
   xml:space="preserve"
   xmlns="http://www.w3.org/2000/svg"
   xmlns:svg="http://www.w3.org/2000/svg"><defs
     id="defs1"><clipPath
       clipPathUnits="userSpaceOnUse"
       id="clipPath9738"><path
         d="M 0,250 H 1024 V 0 H 0 Z"
         transform="translate(-184.8457,-78.516102)"
         id="path9738" /></clipPath><clipPath
       clipPathUnits="userSpaceOnUse"
       id="clipPath9740"><path
         d="M 0,250 H 1024 V 0 H 0 Z"
         transform="translate(-261.07411,-112.9948)"
         id="path9740" /></clipPath><clipPath
       clipPathUnits="userSpaceOnUse"
       id="clipPath9742"><path
         d="M 0,250 H 1024 V 0 H 0 Z"
         transform="translate(-330.21031,-81.173)"
         id="path9742" /></clipPath><linearGradient
       x1="0"
       y1="0"
       x2="1"
       y2="0"
       gradientUnits="userSpaceOnUse"
       gradientTransform="matrix(0,44.625458,44.625458,0,243.44493,129.62062)"
       spreadMethod="pad"
       id="linearGradient9744"><stop
         style="stop-opacity:1;stop-color:#3db34a"
         offset="0"
         id="stop9742" /><stop
         style="stop-opacity:1;stop-color:#007452"
         offset="0.99888125"
         id="stop9743" /><stop
         style="stop-opacity:1;stop-color:#007452"
         offset="1"
         id="stop9744" /></linearGradient></defs><g
     id="layer-MC0-7"
     transform="matrix(0.26458332,0,0,0.26458333,-65.029181,-29.429427)"><path
       id="path9737"
       d="m 0,0 c 0.511,3.63 0.511,7.192 0,10.823 6.006,-5.833 19.68,-8.62 31.372,-8.62 9.521,0 13.483,2.14 13.483,6.417 0,5.702 -6.007,6.352 -20.256,7.583 -15.654,1.425 -25.11,3.953 -25.11,13.738 0,9.658 8.498,14.388 25.877,14.388 12.204,0 19.489,-1.684 28.495,-3.886 -0.508,-3.503 -0.508,-6.805 0,-10.111 -7.411,3.109 -17.249,6.286 -28.877,6.286 -9.842,0 -13.994,-2.009 -13.994,-6.352 0,-5.183 5.11,-6.545 18.146,-7.583 C 45.557,21.387 56.353,19.118 56.353,8.686 56.353,-0.906 47.664,-5.508 30.35,-5.508 18.657,-5.508 8.052,-3.046 0,0"
       style="fill:#004638;fill-opacity:1;fill-rule:nonzero;stroke:none"
       transform="matrix(1.3333333,0,0,-1.3333333,246.46093,228.6452)"
       clip-path="url(#clipPath9738)" /><path
       id="path9739"
       d="m 0,0 c -0.191,-13.026 0,-26.248 0.576,-39.274 h -11.502 c 0.512,16.072 0.512,32.21 0,48.282 4.217,-0.519 11.628,-0.647 15.845,0 9.841,-13.417 20.126,-26.636 30.861,-39.662 0.191,13.22 0.065,26.505 -0.576,39.662 C 39.23,8.427 43,8.361 46.579,9.008 46.13,-7.064 46.194,-23.202 46.77,-39.274 H 31.308 C 21.275,-25.989 10.861,-12.832 0,0"
       style="fill:#004638;fill-opacity:1;fill-rule:nonzero;stroke:none"
       transform="matrix(1.3333333,0,0,-1.3333333,348.0988,182.6736)"
       clip-path="url(#clipPath9740)" /><path
       id="path9741"
       d="m 0,0 c 5.049,-0.128 8.945,-0.259 16.997,-0.259 11.501,0 14.375,3.433 14.375,7.258 0,3.437 -2.874,6.286 -13.929,6.286 -6.197,0 -12.268,0 -17.699,-0.062 C -0.256,8.814 -0.126,4.084 0,0 m 17.443,19.572 c 7.858,0 11.693,2.333 11.693,7.129 0,5.121 -4.217,6.871 -11.693,6.871 -7.666,0 -13.993,0 -17.569,-0.066 -0.13,-4.277 -0.194,-8.879 -0.13,-13.803 5.431,-0.066 11.502,-0.131 17.699,-0.131 m -28.944,21.389 c 8.624,0 16.74,0.194 28.88,0.194 15.081,0 23.32,-3.565 23.32,-12.12 0,-7.648 -6.708,-10.629 -14.951,-10.954 v -0.84 c 10.223,-0.26 17.89,-3.759 17.89,-11.992 0,-11.664 -15.78,-13.091 -27.217,-13.091 -13.353,0 -19.104,0.39 -27.922,0.39 0.767,12.12 0.767,36.294 0,48.413"
       style="fill:#004638;fill-opacity:1;fill-rule:nonzero;stroke:none"
       transform="matrix(1.3333333,0,0,-1.3333333,440.2804,225.10267)"
       clip-path="url(#clipPath9742)" /><path
       id="path9744"
       d="m 223.968,154.485 c -2.618,-2.5 -4.993,-5.264 -7.085,-8.241 v 0 c 3.509,-4.987 6.23,-10.576 7.978,-16.585 v 0 c 3.656,8.784 10.274,15.994 18.584,20.343 v 0 c 8.31,-4.349 14.928,-11.559 18.584,-20.343 v 0 c 1.748,6.009 4.469,11.598 7.978,16.585 v 0 c -2.092,2.977 -4.467,5.741 -7.085,8.241 v 0 c -5.534,5.309 -12.157,9.467 -19.477,12.093 v 0 c -7.32,-2.626 -13.943,-6.784 -19.477,-12.093"
       transform="matrix(1.3333333,0,0,-1.3333333,0,333.33333)"
       style="fill:url(#linearGradient9744);stroke:none" /></g></svg>
