<?xml version="1.0" encoding="UTF-8"?>
<svg id="Layer_1" data-name="Layer 1" xmlns="http://www.w3.org/2000/svg" viewBox="0 0 451.76 293.09">
  <rect x="55" y="121.13" width="14.36" height="5.21" style="fill: #4b3d90;"/>
  <path d="M84.41,104.51c-1.43,0-2.67,1.24-2.67,2.61v14.04h-12.43v2.55c0,1.49,1.18,2.61,2.61,2.61h15.1v-21.81h-2.61Z" style="fill: #4b3d90;"/>
  <polygon points="77.51 108.92 73.41 113.08 69.31 108.92 73.41 104.82 77.51 108.92" style="fill: #4b3d90;"/>
  <rect x="86.94" y="121.13" width="10.6" height="5.21" style="fill: #4b3d90;"/>
  <rect x="97.5" y="121.13" width="10.6" height="5.21" style="fill: #4b3d90;"/>
  <rect x="108.05" y="121.13" width="10.6" height="5.21" style="fill: #4b3d90;"/>
  <rect x="118.61" y="121.13" width="10.6" height="5.21" style="fill: #4b3d90;"/>
  <path d="M146.85,104.53v21.81h-15.06c-1.45,0-2.62-1.17-2.62-2.62v-2.58h12.44v-13.99c0-1.41,1.21-2.62,2.62-2.62h2.62ZM137.82,131.94l3.45,3.42,3.45-3.42,4.13,4.1-4.13,4.13-3.45-3.42-3.45,3.42-4.06-4.13,4.06-4.1Z" style="fill: #4b3d90;"/>
  <path d="M194.64,126.34h-45.22c-1.45,0-2.62-1.17-2.62-2.62v-2.58h42.61v-5.7c0-2.74-1.91-5.7-5.7-5.7h-26c-1.39,0-2.59-1.2-2.59-2.62v-4.16c0-7.3,5.33-10.91,10.91-10.91h26.34c-.83,1.23-1.57,2.93-1.81,5.21h-24.52c-3.05,0-6.47,2.44-5.54,7.24h23.23c7.3,0,10.93,5.33,10.93,10.93v10.91Z" style="fill: #4b3d90;"/>
  <path d="M205.15,115.43c0-7.3,5.36-10.93,10.94-10.93,7.3,0,10.9,5.36,10.9,10.93v8.29c0,1.45-1.17,2.62-2.58,2.62h-27.24c-1.45,0-2.62-1.17-2.62-2.62v-2.58h10.6v-5.7ZM221.79,121.13v-5.7c0-2.74-1.91-5.7-5.7-5.7-2.71,0-5.7,1.91-5.7,5.7v5.7h11.4Z" style="fill: #4b3d90;"/>
  <path d="M244.61,104.53v21.81h-15.06c-1.45,0-2.62-1.17-2.62-2.62v-2.58h12.44v-13.99c0-1.41,1.21-2.62,2.62-2.62h2.62ZM236.53,98.79l-4.06-4.1,4.06-4.13,3.45,3.42,3.45-3.42,4.13,4.13-4.13,4.1-3.45-3.42-3.45,3.42Z" style="fill: #4b3d90;"/>
  <path d="M256.85,91.56v29.58h-12.29v2.62c0,1.41,1.17,2.58,2.62,2.58h14.91v-34.78h-5.24Z" style="fill: #4b3d90;"/>
  <rect x="55" y="173.27" width="10.6" height="5.21" style="fill: #4b3d90;"/>
  <path d="M83.24,156.67v21.81h-15.06c-1.45,0-2.62-1.17-2.62-2.62v-2.58h12.44v-13.99c0-1.41,1.21-2.62,2.62-2.62h2.62ZM74.21,184.09l3.45,3.42,3.45-3.42,4.13,4.1-4.13,4.13-3.45-3.42-3.45,3.42-4.06-4.13,4.06-4.1Z" style="fill: #4b3d90;"/>
  <path d="M113.99,171.7c0,3.08.87,5.27,1.88,6.78h-7.12v-2.62c0,1.45-1.17,2.62-2.62,2.62h-13.98v-5.21h16.6v-5.7c0-2.74-1.91-5.7-5.7-5.7h-9.25c.96-1.42,1.97-3.26,2.34-5.24h6.9c7.3,0,10.93,5.33,10.93,10.93v4.13Z" style="fill: #4b3d90;"/>
  <path d="M128.76,143.7h-5.24v34.78h8.01c-.98-1.51-2.77-2.46-2.77-5.55v-29.24Z" style="fill: #4b3d90;"/>
  <rect x="128.69" y="173.27" width="10.6" height="5.21" style="fill: #4b3d90;"/>
  <rect x="139.25" y="173.27" width="10.6" height="5.21" style="fill: #4b3d90;"/>
  <rect x="149.8" y="173.27" width="10.6" height="5.21" style="fill: #4b3d90;"/>
  <rect x="160.35" y="173.27" width="10.6" height="5.21" style="fill: #4b3d90;"/>
  <rect x="170.91" y="173.27" width="10.6" height="5.21" style="fill: #4b3d90;"/>
  <rect x="181.47" y="173.27" width="10.6" height="5.21" style="fill: #4b3d90;"/>
  <rect x="192.02" y="173.27" width="10.6" height="5.21" style="fill: #4b3d90;"/>
  <rect x="202.57" y="173.27" width="10.6" height="5.21" style="fill: #4b3d90;"/>
  <path d="M230.82,156.67v21.81h-15.06c-1.45,0-2.62-1.17-2.62-2.62v-2.58h12.44v-13.99c0-1.41,1.21-2.62,2.62-2.62h2.62ZM221.79,184.09l3.45,3.42,3.45-3.42,4.13,4.1-4.13,4.13-3.45-3.42-3.45,3.42-4.06-4.13,4.06-4.1Z" style="fill: #4b3d90;"/>
  <path d="M244.59,157.59v22.43c0,4.9-2.4,8.14-5.64,9.74-.55-1.7-1.63-3.54-2.46-4.71,1.63-.9,2.89-2.56,2.89-5.02v-19.81l5.21-2.62Z" style="fill: #4b3d90;"/>
  <path d="M256.84,143.7v29.58h-12.29v2.62c0,1.41,1.17,2.58,2.62,2.58h14.91v-34.78h-5.24Z" style="fill: #4b3d90;"/>
  <rect x="271.36" y="143.7" width="5.24" height="34.78" style="fill: #4b3d90;"/>
  <rect x="271.36" y="91.56" width="5.24" height="34.78" style="fill: #4b3d90;"/>
  <polygon points="361.18 148.5 295.11 177.26 295.11 143.01 340.75 124.39 313.71 124.39 313.71 91.93 361.18 91.93 361.18 148.5" style="fill: #8fd2e3;"/>
  <rect x="361.18" y="56.34" width="35.59" height="35.59" style="fill: #5d9fdd;"/>
  <path d="M60.19,230.36c-.32,0-.66-.03-1.03-.08-.36-.05-.73-.17-1.09-.34-.36-.18-.7-.42-1.03-.75-.33-.32-.61-.75-.84-1.3-.08-.18-.15-.4-.22-.64-.07-.24-.14-.52-.2-.84-.06-.32-.1-.68-.14-1.09-.03-.41-.05-.87-.05-1.39,0-.33,0-.68.03-1.04.02-.36.06-.73.13-1.09.07-.36.17-.72.29-1.07.13-.35.3-.68.51-.99.3-.44.64-.78,1.02-1.03.38-.25.77-.43,1.15-.56.39-.12.76-.2,1.11-.22.36-.03.66-.04.9-.04h3.69v-1.44h2.76v11.78h2.49v2.11h-9.5ZM58.78,226.83c.14.31.31.56.51.75.2.18.42.33.65.42.23.1.46.16.69.2.23.03.45.05.66.05h3.13c0-.11,0-.22,0-.34,0-.12,0-.23,0-.33v-7.57h-3.15c-.18,0-.38.01-.59.03-.21.02-.41.07-.62.15-.21.08-.41.19-.6.34-.19.15-.36.34-.51.57-.07.11-.14.25-.2.41-.07.16-.12.35-.17.59-.05.23-.09.51-.12.82-.03.31-.05.68-.05,1.1,0,.49.01.9.04,1.23.03.33.06.61.09.82.03.21.07.38.11.49.04.11.07.2.09.25ZM59.05,214.33v-2.19h2.74v2.19h-2.74ZM62.74,214.33v-2.19h2.74v2.19h-2.74ZM69.42,230.34v-2.11h5.17v2.12h-5.17ZM74.39,230.34v-2.11h5.17v2.12h-5.17ZM79.35,230.34v-2.11h5.17v2.12h-5.17ZM84.31,230.34v-2.11h5.17v2.12h-5.17ZM89.27,230.34v-2.11h5.17v2.12h-5.17ZM94.23,230.34v-2.11h.28c.51,0,.92-.06,1.23-.17.31-.11.56-.31.76-.57.21-.29.34-.62.41-.98.06-.36.1-.74.11-1.14,0-.05-.01-.1-.01-.15v-.16h.01v-7.18h2.74v7.18l.06,1.7c.09.33.24.59.44.79.2.2.42.34.68.45s.52.17.8.2c.28.03.55.05.8.05h.3v2.11h-1.13c-.27,0-.54,0-.82-.03-.28-.02-.56-.06-.84-.12-.28-.06-.56-.16-.83-.28-.27-.13-.53-.3-.76-.51-.25.21-.5.38-.76.51-.26.12-.54.22-.82.28-.28.07-.57.11-.87.12-.3.02-.61.02-.93.02h-.83ZM95.35,234.45v-2.19h2.74v2.19h-2.74ZM99.04,234.45v-2.19h2.74v2.19h-2.74ZM102.61,230.34v-2.11h.28c.51,0,.92-.06,1.23-.17.31-.11.56-.31.76-.57.21-.29.34-.62.41-.98.06-.36.1-.74.11-1.14,0-.02,0-.05,0-.1,0-.05,0-.19,0-.41v-3c0-.84,0-1.91,0-3.2,0-1.29,0-2.88,0-4.75h2.74v11.16l.06,1.7c.09.33.24.59.44.79.2.2.42.34.68.45s.52.17.8.2c.28.03.55.05.8.05h.3v2.11h-1.13c-.27,0-.54,0-.82-.03-.28-.02-.56-.06-.84-.12-.28-.06-.56-.16-.83-.28-.27-.13-.53-.3-.76-.51-.25.21-.5.38-.76.51-.26.12-.54.22-.82.28-.28.07-.57.11-.87.12-.3.02-.61.02-.93.02h-.83ZM110.92,228.24h2.16c-.3-.49-.49-1.04-.59-1.64-.11-.77-.17-1.54-.17-2.33,0-.33,0-.68.02-1.06.01-.37.05-.76.1-1.15.06-.39.15-.78.26-1.15.12-.38.28-.73.49-1.06.25-.43.55-.77.88-1.03.34-.26.69-.45,1.06-.59.37-.14.73-.23,1.1-.27.37-.04.71-.06,1.02-.06h2.55v-1.72h2.74v1.72h2.54c.34,0,.69.02,1.06.07s.73.14,1.09.28.7.33,1.03.59c.33.26.63.6.9,1.02.44.7.69,1.44.76,2.2.07.77.1,1.51.1,2.22,0,.42-.01.82-.04,1.21-.03.39-.07.76-.12,1.13-.1.7-.39,1.39-.87,2.06-.3.41-.62.72-.96.95-.34.23-.69.39-1.03.51-.35.11-.69.18-1.03.2-.34.02-.66.03-.97.03h-14.08v-2.11ZM119.81,220.01h-1.41c-.19,0-.4,0-.64.02-.23.02-.47.06-.71.12-.24.07-.47.16-.7.3-.23.13-.42.32-.59.55-.2.29-.35.69-.45,1.18-.09.5-.14,1.2-.14,2.11,0,.53.02,1.04.07,1.52.05.49.19.92.42,1.31.11.21.25.38.42.52.16.14.36.26.58.34.22.09.48.15.77.19.29.04.63.06,1.01.06h1.37v-8.23ZM123.92,228.24c.37,0,.71-.02,1-.06.29-.04.55-.1.78-.19.23-.09.42-.2.59-.34.16-.14.3-.32.42-.52.23-.39.37-.83.42-1.31.05-.49.07-.99.07-1.52,0-.79-.04-1.45-.12-1.99-.08-.54-.24-.97-.48-1.3-.16-.23-.35-.41-.57-.55-.22-.13-.45-.23-.69-.3-.24-.06-.48-.11-.72-.12-.24-.02-.45-.02-.64-.02h-1.41v8.23h1.37ZM131.51,230.34v-2.11h3.69l-3.26-14.34h2.76l3.26,14.34h.62c.51,0,.92-.06,1.23-.17.31-.11.56-.31.76-.57.22-.3.36-.64.42-1.02.06-.38.09-.78.09-1.19v-11.37h2.74v12.19c0,.43-.03.81-.1,1.15-.07.34-.15.64-.26.9-.11.26-.24.49-.39.68-.15.2-.3.37-.47.51-.25.23-.51.41-.79.55-.27.13-.55.24-.84.3-.29.07-.59.11-.9.13-.31.02-.62.03-.95.03h-7.61ZM132.07,212.06h1.39c.05,0,.08-.02.08-.07,0-.02,0-.03,0-.03,0,0-.03-.02-.09-.04-.05-.02-.14-.05-.26-.09-.12-.04-.3-.1-.53-.17-.22-.08-.38-.17-.48-.29-.1-.12-.14-.28-.14-.48,0-.26.06-.44.2-.55.13-.1.3-.16.52-.16h1.71v.65h-1.39s-.04,0-.08-.01h-.01s-.06.02-.06.06c0,.02.01.03.04.05.03.02.07.04.14.06.06.02.16.05.27.09.11.04.26.09.44.15.24.08.43.19.55.31.12.12.18.3.18.53,0,.2-.06.36-.17.48-.11.12-.27.18-.47.18h-1.83v-.69ZM145.61,213.89h2.76v16.47h-2.76v-16.47ZM158.59,224.32c0,.53.02,1.03.07,1.52s.19.91.42,1.3c.11.21.25.38.42.52.16.14.36.26.58.34.22.09.48.15.78.19.29.04.63.06,1,.06h5.48c.37,0,.71-.02,1-.06.29-.04.55-.1.78-.19.23-.09.42-.2.59-.34.16-.14.3-.32.42-.52.24-.39.38-.83.42-1.31.05-.49.07-1,.08-1.56v-6.37h2.85l-.02,6.43c0,.41,0,.81-.03,1.19-.02.38-.07.75-.14,1.11-.07.36-.18.71-.32,1.04-.14.34-.32.67-.55,1-.3.41-.62.72-.96.95-.34.23-.69.39-1.03.51-.35.11-.69.18-1.04.2s-.67.03-.96.03h-7.64c-.29,0-.61-.01-.95-.03-.34-.02-.69-.09-1.04-.2-.35-.11-.7-.28-1.05-.51-.35-.23-.67-.54-.97-.95-.23-.31-.41-.63-.55-.98-.14-.35-.24-.71-.31-1.09-.07-.38-.11-.76-.13-1.15-.02-.39-.03-.79-.03-1.19v-3.66h2.85v3.72ZM162.06,216.04v-2.19h2.74v2.19h-2.74ZM165.76,216.04v-2.19h2.74v2.19h-2.74ZM179.63,230.34c-.33,0-.65,0-.95-.03-.31-.02-.6-.06-.9-.13-.29-.07-.57-.17-.84-.3-.27-.13-.53-.32-.79-.55-.16-.15-.32-.32-.47-.51-.15-.2-.28-.42-.39-.68-.11-.26-.2-.56-.26-.9-.07-.34-.1-.72-.1-1.15v-12.21h2.74v11.38c0,.41.03.81.09,1.19.06.38.2.72.42,1.02.2.27.45.46.76.57.31.11.72.17,1.23.17h1.34v2.11h-1.89ZM181.31,230.34v-2.11h5.17v2.12h-5.17ZM186.27,230.34v-2.11h5.17v2.12h-5.17ZM191.23,230.34v-2.11h5.17v2.12h-5.17ZM196.19,230.34v-2.11h5.17v2.12h-5.17ZM201.15,230.34v-2.11h5.17v2.12h-5.17ZM206.12,230.34v-2.11h.28c.51,0,.92-.06,1.23-.17.31-.11.56-.31.76-.57.21-.29.34-.62.41-.98.06-.36.1-.74.11-1.14,0-.05-.01-.1-.01-.15v-.16h.01v-7.18h2.74v7.18l.06,1.7c.09.33.24.59.44.79.2.2.42.34.68.45.25.1.52.17.8.2.28.03.55.05.8.05h.3v2.11h-1.13c-.27,0-.54,0-.82-.03-.28-.02-.56-.06-.84-.12-.28-.06-.56-.16-.83-.28-.27-.13-.53-.3-.76-.51-.25.21-.5.38-.76.51-.26.12-.54.22-.82.28-.28.07-.57.11-.87.12-.3.02-.61.02-.93.02h-.83ZM207.23,234.45v-2.19h2.74v2.19h-2.74ZM210.93,234.45v-2.19h2.74v2.19h-2.74ZM224.58,217.86c.17,0,.35,0,.55.03.2.02.4.06.61.11.21.06.42.14.63.25.21.11.41.26.6.44.2.2.36.42.47.65.11.23.2.48.26.73.06.25.09.51.11.78,0,.18.01.35.01.53v.26c-.02.73-.11,1.4-.28,2.02-.17.62-.38,1.19-.65,1.72-.26.53-.56,1.03-.88,1.5-.33.47-.65.92-.97,1.35h3.72v2.11h-14.35v-2.11h3.61c-.32-.44-.65-.89-.97-1.35-.33-.47-.62-.97-.88-1.5-.26-.53-.48-1.11-.65-1.72-.17-.62-.26-1.29-.28-2.02v-.26c0-.18,0-.35.01-.53.02-.27.05-.53.11-.78.06-.25.14-.5.26-.73.11-.23.27-.45.47-.65.19-.18.39-.33.6-.44.21-.11.42-.2.63-.25.21-.06.42-.1.61-.11.2-.02.38-.03.55-.03h6.09ZM218.09,221.88c0,.2.02.39.03.56.03.28.11.59.25.93.13.34.3.69.49,1.04.2.36.41.72.65,1.09.24.37.48.72.72,1.06.24.34.47.65.69.94.22.29.41.53.56.74h.08c.15-.21.34-.45.56-.74.22-.29.45-.6.69-.94.24-.34.48-.69.72-1.06.24-.37.46-.73.65-1.09.2-.36.37-.71.5-1.05.13-.34.22-.65.25-.92.02-.18.03-.36.03-.56v-.57c-.02-.18-.04-.34-.07-.48-.03-.15-.07-.25-.13-.32-.28-.34-.76-.51-1.45-.51h-3.61c-.69,0-1.17.17-1.45.51-.06.07-.11.18-.13.32-.03.15-.04.31-.05.48,0,.11-.01.23-.01.34v.23h0ZM238.58,230.49c-.38,0-.78-.01-1.23-.03-.44-.02-.89-.08-1.34-.17-.45-.09-.88-.22-1.31-.4-.42-.18-.81-.42-1.15-.73-.02-.02-.06-.05-.1-.09-.26.28-.55.5-.86.67-.31.17-.63.3-.95.39-.33.09-.65.15-.98.18-.33.03-.64.05-.94.05h-1.23v-2.11h.46c.18,0,.39,0,.63-.02.24-.02.48-.06.72-.14.24-.08.47-.21.69-.38.22-.17.41-.42.56-.73.07-.15.15-.37.23-.67.08-.3.14-.74.17-1.33,0-.15-.01-.29-.01-.42v-.38c0-.34.02-.74.05-1.19.03-.45.1-.91.21-1.38.11-.47.27-.92.48-1.37.21-.44.5-.83.87-1.16.34-.32.73-.57,1.15-.75.42-.18.86-.31,1.31-.39.45-.08.89-.14,1.34-.16.44-.02.85-.03,1.23-.03s.78,0,1.22.03c.44.02.88.07,1.33.16.45.08.89.21,1.31.39.43.18.82.42,1.16.75.37.33.66.72.87,1.16.21.44.37.9.48,1.36.11.46.18.91.21,1.35.03.44.05.82.05,1.14,0,.96-.08,1.78-.24,2.46-.16.68-.38,1.25-.64,1.71h2.2v2.11h-4.31l-3.64.14ZM235.57,220.86c-.24.29-.41.61-.51.95-.1.34-.17.7-.2,1.07-.03.3-.05.6-.05.9v.55c0,.23,0,.45-.01.67.02.41.09.82.2,1.23.11.41.31.78.6,1.13.21.23.43.41.67.55s.49.24.75.31c.26.07.52.11.79.14.27.02.53.03.78.03s.52-.01.79-.03.52-.07.78-.14c.25-.07.5-.17.73-.31.24-.14.46-.32.67-.55.21-.23.37-.47.48-.73.11-.26.19-.52.25-.8.05-.28.08-.55.09-.84,0-.28.01-.56.01-.84v-.75c0-.21-.01-.42-.03-.65-.02-.23-.07-.45-.13-.68-.06-.23-.14-.44-.25-.65-.1-.21-.24-.39-.4-.56-.21-.22-.43-.4-.67-.53-.24-.13-.49-.23-.75-.3-.26-.07-.52-.11-.79-.13-.26-.02-.52-.03-.78-.03-.22,0-.47,0-.74.03-.27.02-.54.06-.82.13-.27.07-.53.17-.79.3-.25.13-.47.31-.67.53ZM246.12,230.36v-2.11h8.86c.08,0,.18,0,.3-.01.11,0,.22-.05.32-.14.09-.08.15-.16.16-.24.02-.08.02-.18.02-.28v-5.86c0-.18-.02-.38-.06-.58-.04-.2-.14-.4-.3-.59-.18-.24-.4-.39-.64-.45-.25-.06-.47-.09-.69-.09h-6.14v-2.11h7.08c.53,0,1.02.09,1.48.26.46.17.82.41,1.11.71.27.26.49.64.66,1.13.17.49.26,1.09.26,1.81v6.44h2.24v2.11h-14.66ZM251.61,234.45v-2.19h2.74v2.19h-2.74ZM260.56,230.34v-2.11h.28c.51,0,.92-.06,1.23-.17.31-.11.56-.31.76-.57.21-.29.34-.62.41-.98.06-.36.1-.74.11-1.14,0-.02,0-.05,0-.1,0-.05,0-.19,0-.41v-3c0-.84,0-1.91,0-3.2,0-1.29,0-2.88,0-4.75h2.74v11.16l.06,1.7c.09.33.24.59.44.79.2.2.42.34.68.45.25.1.52.17.8.2.28.03.55.05.8.05h.3v2.11h-1.13c-.27,0-.54,0-.82-.03-.28-.02-.56-.06-.84-.12-.28-.06-.56-.16-.83-.28-.27-.13-.53-.3-.76-.51-.25.21-.5.38-.76.51-.26.12-.54.22-.82.28-.28.07-.57.11-.87.12-.3.02-.61.02-.93.02h-.83ZM268.92,230.34v-2.11h1.34c.51,0,.92-.06,1.23-.17.31-.11.56-.31.76-.57.22-.3.36-.64.42-1.02.06-.38.09-.78.09-1.19v-11.38h2.74v12.21c0,.43-.03.81-.1,1.15-.07.34-.15.64-.26.9-.11.26-.24.49-.39.68s-.3.37-.47.51c-.25.23-.51.41-.79.55-.27.13-.55.24-.84.3-.29.07-.59.11-.9.13-.31.02-.62.03-.95.03h-1.89Z" style="fill: #5d9fdd;"/>
</svg>